<svg width="143" height="34" viewBox="0 0 143 34" fill="none" xmlns="http://www.w3.org/2000/svg">
<path fill-rule="evenodd" clip-rule="evenodd" d="M0 32.8851C0 23.958 6.88212 16.7212 15.3716 16.7212H23.9672V17.0069C23.9672 21.7541 20.1188 25.6025 15.3716 25.6025V25.6025C11.5467 25.6025 8.44596 28.863 8.44596 32.8851H0Z" fill="#FFC300"/>
<path fill-rule="evenodd" clip-rule="evenodd" d="M0 31.5776C0 20.2944 9.45346 11.1475 21.1149 11.1475L22.5845 11.1475L21.1149 17.1857H23.9672L23.7819 19.3195H21.1149C14.118 19.3195 8.44596 24.8077 8.44596 31.5776V32.8852H0V31.5776Z" fill="#FF9900"/>
<path fill-rule="evenodd" clip-rule="evenodd" d="M0 30.1655C0 18.4308 9.62703 8.91797 21.5026 8.91797L26.7541 8.91797V12.1654C26.7541 15.0658 24.4029 17.417 21.5026 17.417V17.417C14.3772 17.417 8.60103 23.1247 8.60103 30.1655V32.8852H0V30.1655Z" fill="#FF3E80"/>
<path fill-rule="evenodd" clip-rule="evenodd" d="M0 22.6977C0 10.7776 9.62703 1.1145 21.5026 1.1145H22.9991L21.591 7.89587H26.7541V9.74779H21.5026C14.3772 9.74779 8.60103 15.5457 8.60103 22.6977V32.885H0V22.6977Z" fill="#D62460"/>
<path fill-rule="evenodd" clip-rule="evenodd" d="M0 21.7032C0 9.71687 9.63562 0 21.5218 0H32.8852V0C32.8852 4.79455 28.9985 8.6813 24.2039 8.6813H21.5218C14.3901 8.6813 8.6087 14.5114 8.6087 21.7032V31.9803C8.6087 33.0957 7.70444 34 6.58897 34H2.01973C0.904265 34 0 33.0957 0 31.9803L0 21.7032Z" fill="#217BF4"/>
<path d="M35.4 28V7.21H49.32V11.14H40.08V15.49H48.3V19.42H40.08V28H35.4ZM57.6241 24.88C58.0641 24.88 58.4841 24.87 58.8841 24.85C59.2841 24.83 59.6041 24.8 59.8441 24.76V21.37C59.6641 21.33 59.3941 21.29 59.0341 21.25C58.6741 21.21 58.3441 21.19 58.0441 21.19C57.6241 21.19 57.2241 21.22 56.8441 21.28C56.4841 21.32 56.1641 21.41 55.8841 21.55C55.6041 21.69 55.3841 21.88 55.2241 22.12C55.0641 22.36 54.9841 22.66 54.9841 23.02C54.9841 23.72 55.2141 24.21 55.6741 24.49C56.1541 24.75 56.8041 24.88 57.6241 24.88ZM57.2641 11.8C58.5841 11.8 59.6841 11.95 60.5641 12.25C61.4441 12.55 62.1441 12.98 62.6641 13.54C63.2041 14.1 63.5841 14.78 63.8041 15.58C64.0241 16.38 64.1341 17.27 64.1341 18.25V27.55C63.4941 27.69 62.6041 27.85 61.4641 28.03C60.3241 28.23 58.9441 28.33 57.3241 28.33C56.3041 28.33 55.3741 28.24 54.5341 28.06C53.7141 27.88 53.0041 27.59 52.4041 27.19C51.8041 26.77 51.3441 26.23 51.0241 25.57C50.7041 24.91 50.5441 24.1 50.5441 23.14C50.5441 22.22 50.7241 21.44 51.0841 20.8C51.4641 20.16 51.9641 19.65 52.5841 19.27C53.2041 18.89 53.9141 18.62 54.7141 18.46C55.5141 18.28 56.3441 18.19 57.2041 18.19C57.7841 18.19 58.2941 18.22 58.7341 18.28C59.1941 18.32 59.5641 18.38 59.8441 18.46V18.04C59.8441 17.28 59.6141 16.67 59.1541 16.21C58.6941 15.75 57.8941 15.52 56.7541 15.52C55.9941 15.52 55.2441 15.58 54.5041 15.7C53.7641 15.8 53.1241 15.95 52.5841 16.15L52.0141 12.55C52.2741 12.47 52.5941 12.39 52.9741 12.31C53.3741 12.21 53.8041 12.13 54.2641 12.07C54.7241 11.99 55.2041 11.93 55.7041 11.89C56.2241 11.83 56.7441 11.8 57.2641 11.8ZM78.2862 19.99C78.2862 17.11 77.2262 15.67 75.1062 15.67C74.6462 15.67 74.1862 15.73 73.7262 15.85C73.2862 15.97 72.9262 16.12 72.6462 16.3V24.43C72.8662 24.47 73.1462 24.51 73.4862 24.55C73.8262 24.57 74.1962 24.58 74.5962 24.58C75.8162 24.58 76.7362 24.16 77.3562 23.32C77.9762 22.48 78.2862 21.37 78.2862 19.99ZM82.8462 20.11C82.8462 21.37 82.6562 22.51 82.2762 23.53C81.9162 24.55 81.3862 25.42 80.6862 26.14C79.9862 26.86 79.1262 27.42 78.1062 27.82C77.0862 28.2 75.9262 28.39 74.6262 28.39C74.0862 28.39 73.5162 28.36 72.9162 28.3C72.3362 28.26 71.7562 28.2 71.1762 28.12C70.6162 28.04 70.0762 27.95 69.5562 27.85C69.0362 27.73 68.5762 27.61 68.1762 27.49V5.44L72.6462 4.72V12.58C73.1462 12.36 73.6662 12.19 74.2062 12.07C74.7462 11.95 75.3262 11.89 75.9462 11.89C77.0662 11.89 78.0562 12.09 78.9162 12.49C79.7762 12.87 80.4962 13.42 81.0762 14.14C81.6562 14.86 82.0962 15.73 82.3962 16.75C82.6962 17.75 82.8462 18.87 82.8462 20.11ZM85.5316 20.11C85.5316 18.97 85.7116 17.9 86.0716 16.9C86.4516 15.88 86.9916 15 87.6916 14.26C88.3916 13.5 89.2416 12.9 90.2416 12.46C91.2416 12.02 92.3816 11.8 93.6616 11.8C94.5016 11.8 95.2716 11.88 95.9716 12.04C96.6716 12.18 97.3516 12.39 98.0116 12.67L97.0816 16.24C96.6616 16.08 96.2016 15.94 95.7016 15.82C95.2016 15.7 94.6416 15.64 94.0216 15.64C92.7016 15.64 91.7116 16.05 91.0516 16.87C90.4116 17.69 90.0916 18.77 90.0916 20.11C90.0916 21.53 90.3916 22.63 90.9916 23.41C91.6116 24.19 92.6816 24.58 94.2016 24.58C94.7416 24.58 95.3216 24.53 95.9416 24.43C96.5616 24.33 97.1316 24.17 97.6516 23.95L98.2816 27.61C97.7616 27.83 97.1116 28.02 96.3316 28.18C95.5516 28.34 94.6916 28.42 93.7516 28.42C92.3116 28.42 91.0716 28.21 90.0316 27.79C88.9916 27.35 88.1316 26.76 87.4516 26.02C86.7916 25.28 86.3016 24.41 85.9816 23.41C85.6816 22.39 85.5316 21.29 85.5316 20.11ZM115.28 20.08C115.28 21.32 115.1 22.46 114.74 23.5C114.38 24.52 113.86 25.4 113.18 26.14C112.5 26.86 111.68 27.42 110.72 27.82C109.78 28.22 108.72 28.42 107.54 28.42C106.38 28.42 105.32 28.22 104.36 27.82C103.42 27.42 102.61 26.86 101.93 26.14C101.25 25.4 100.72 24.52 100.34 23.5C99.9599 22.46 99.7699 21.32 99.7699 20.08C99.7699 18.84 99.9599 17.71 100.34 16.69C100.74 15.67 101.28 14.8 101.96 14.08C102.66 13.36 103.48 12.8 104.42 12.4C105.38 12 106.42 11.8 107.54 11.8C108.68 11.8 109.72 12 110.66 12.4C111.62 12.8 112.44 13.36 113.12 14.08C113.8 14.8 114.33 15.67 114.71 16.69C115.09 17.71 115.28 18.84 115.28 20.08ZM110.72 20.08C110.72 18.7 110.44 17.62 109.88 16.84C109.34 16.04 108.56 15.64 107.54 15.64C106.52 15.64 105.73 16.04 105.17 16.84C104.61 17.62 104.33 18.7 104.33 20.08C104.33 21.46 104.61 22.56 105.17 23.38C105.73 24.18 106.52 24.58 107.54 24.58C108.56 24.58 109.34 24.18 109.88 23.38C110.44 22.56 110.72 21.46 110.72 20.08ZM127.413 19.63C127.413 18.19 127.223 17.17 126.843 16.57C126.483 15.97 125.853 15.67 124.953 15.67C124.673 15.67 124.383 15.69 124.083 15.73C123.783 15.75 123.493 15.78 123.213 15.82V28H118.743V12.76C119.123 12.66 119.563 12.56 120.063 12.46C120.583 12.34 121.123 12.24 121.683 12.16C122.263 12.06 122.853 11.99 123.453 11.95C124.053 11.89 124.643 11.86 125.223 11.86C126.363 11.86 127.283 12.01 127.983 12.31C128.703 12.59 129.293 12.93 129.753 13.33C130.393 12.87 131.123 12.51 131.943 12.25C132.783 11.99 133.553 11.86 134.253 11.86C135.513 11.86 136.543 12.04 137.343 12.4C138.163 12.74 138.813 13.23 139.293 13.87C139.773 14.51 140.103 15.27 140.283 16.15C140.463 17.03 140.553 18.01 140.553 19.09V28H136.083V19.63C136.083 18.19 135.893 17.17 135.513 16.57C135.153 15.97 134.523 15.67 133.623 15.67C133.383 15.67 133.043 15.73 132.603 15.85C132.183 15.97 131.833 16.12 131.553 16.3C131.693 16.76 131.783 17.25 131.823 17.77C131.863 18.27 131.883 18.81 131.883 19.39V28H127.413V19.63Z" fill="#2B2B39"/>
</svg>
