<svg width="35" height="34" viewBox="0 0 35 34" fill="none" xmlns="http://www.w3.org/2000/svg">
<path d="M8.28906 7.86166L10.4393 10.0119C10.5736 9.25033 10.9768 8.5336 11.5592 7.99605C12.9926 6.65217 15.322 6.60738 16.7555 7.95125C16.8451 8.04084 16.9347 8.13044 17.0242 8.22003C17.6066 8.89196 17.965 9.74308 17.965 10.639C17.965 10.8182 17.965 10.9974 17.9202 11.1318C17.8306 11.9829 17.4722 12.7444 16.8451 13.3715C16.3075 13.9091 15.6356 14.2675 14.874 14.4018L17.0242 16.552L19.6224 13.9539C19.6672 13.9091 19.6672 13.9091 19.712 13.9091C19.712 13.9091 19.712 13.9091 19.7568 13.9091C19.8016 13.9091 19.8016 13.9091 19.8464 13.9091C19.8912 13.9091 19.936 13.9091 19.936 13.9091C20.0256 13.9539 20.1152 14.0435 20.1152 14.1779C20.1152 15.029 20.4735 15.7905 21.0559 16.3729C21.683 17 22.4893 17.3136 23.3404 17.3136C23.3404 17.3136 23.3404 17.3136 23.3852 17.3136C23.654 17.3136 23.878 17.2688 24.1468 17.224C24.7291 17.0896 25.2667 16.776 25.6698 16.3281C26.3866 15.5217 26.6553 14.4466 26.4314 13.4163C26.297 12.8788 26.0282 12.386 25.6698 11.9829C25.4459 11.7589 25.1771 11.5349 24.9083 11.4005C24.6395 11.2661 24.3708 11.1765 24.102 11.087C23.9676 11.0422 23.8332 11.0422 23.6988 10.9974C23.6092 10.9974 23.4748 10.9974 23.3852 10.9974C23.2509 10.9974 23.1613 10.9078 23.1165 10.8182C23.0717 10.7286 23.1165 10.5942 23.1613 10.5046L25.7594 7.90646L18.5025 0.604743C17.6962 -0.201581 16.3523 -0.201581 15.546 0.604743L8.28906 7.86166Z" fill="white"/>
<path d="M33.4177 15.5216L26.1608 8.26465L24.0106 10.4148C24.7721 10.5492 25.4888 10.9524 26.0264 11.4899C27.3703 12.9234 27.415 15.2528 26.0712 16.6863C25.3544 17.4478 24.4137 17.8957 23.3834 17.8957C22.3531 17.9405 21.3676 17.5374 20.6509 16.7758C20.1133 16.2383 19.755 15.5664 19.6206 14.8048L17.4256 16.9998L20.0237 19.598C20.1133 19.6876 20.1133 19.822 20.0685 19.9116C20.0237 20.0011 19.9342 20.0907 19.7998 20.0907C18.9486 20.0907 18.1871 20.4491 17.6048 21.0314C16.9776 21.6586 16.6641 22.4649 16.6641 23.3608C16.6641 24.2119 17.0224 25.0183 17.6944 25.6454C17.8735 25.8246 18.0975 26.0038 18.3663 26.0934C19.531 26.7205 21.054 26.5413 22.0844 25.6006C22.7115 25.0183 23.0699 24.2119 23.0699 23.3608C23.0699 23.2264 23.1595 23.1369 23.249 23.0921C23.3386 23.0473 23.473 23.0921 23.5626 23.1369L26.1608 25.735L33.4177 18.4781C33.8208 18.0749 34.0448 17.5374 34.0448 16.9998C34.0448 16.4175 33.8208 15.9247 33.4177 15.5216Z" fill="white"/>
<path d="M23.6074 23.9882C23.473 24.7498 23.0699 25.4665 22.4875 26.004C21.0541 27.3479 18.7247 27.3927 17.2912 26.0488C16.5297 25.3321 16.0817 24.3914 16.0817 23.3611C16.0817 22.5996 16.3057 21.838 16.7089 21.2109C16.8432 20.9869 17.0224 20.8077 17.2016 20.6286C17.7392 20.091 18.4111 19.7326 19.1726 19.5982L17.0224 17.4033L14.4243 20.0014C14.3347 20.1358 14.2003 20.1358 14.1107 20.091C14.0211 20.0462 13.9315 19.9566 13.9315 19.8222C13.9315 18.9711 13.5732 18.2096 12.9908 17.6272C12.3637 17.0001 11.5573 16.6865 10.6614 16.6865C10.5718 16.6865 10.4375 16.6865 10.3479 16.6865C9.58633 16.7761 8.9144 17.1345 8.37685 17.672C7.52573 18.5679 7.34654 19.9118 7.7497 21.0317C7.7497 21.0765 7.7945 21.1213 7.7945 21.1661C7.7945 21.2109 7.8393 21.2557 7.8393 21.3005C7.97368 21.5693 8.15287 21.838 8.37685 22.062C8.95919 22.6892 9.76552 23.0475 10.6166 23.0475C10.751 23.0475 10.8406 23.1371 10.8854 23.2267C10.9302 23.3163 10.8854 23.4507 10.8406 23.5403L8.24246 26.1384L15.4994 33.3954C16.3057 34.2017 17.6496 34.2017 18.4559 33.3954L25.7128 26.1384L23.6074 23.9882Z" fill="white"/>
<path d="M0.627141 18.4784L7.88406 25.7353L10.0343 23.5851C9.27273 23.4507 8.556 23.0476 8.01845 22.4652C6.67457 21.0318 6.62978 18.7024 7.97365 17.2689C8.69038 16.5074 9.63109 16.0594 10.6614 16.0594C11.6917 16.0594 12.6772 16.4178 13.3939 17.1793C13.9315 17.7169 14.2899 18.3888 14.4242 19.1503L16.5744 17.0001L13.9763 14.402C13.8867 14.3124 13.8867 14.178 13.9315 14.0884C13.9763 13.9988 14.0659 13.9092 14.2003 13.9092C15.0514 13.9092 15.8129 13.5509 16.3953 12.9685C16.4848 12.8789 16.5296 12.7893 16.6192 12.7445C17.112 12.1622 17.336 11.4455 17.336 10.6839C17.336 9.83281 16.9776 9.02649 16.3057 8.39935C15.0962 7.27945 13.1252 7.27945 11.9605 8.44414C11.3333 9.02649 10.975 9.83281 10.975 10.6839C10.975 10.8183 10.8854 10.9079 10.7958 10.9527C10.7062 10.9975 10.5718 10.9527 10.4822 10.9079L7.88406 8.30975L0.627141 15.5219C0.223979 15.925 0 16.4178 0 17.0001C0 17.5825 0.223979 18.0752 0.627141 18.4784Z" fill="white"/>
</svg>
