<svg width="34" height="21" viewBox="0 0 34 21" fill="none" xmlns="http://www.w3.org/2000/svg">
<path fill-rule="evenodd" clip-rule="evenodd" d="M17.1936 10.7499C19.8371 10.7499 21.9801 8.60688 21.9801 5.96334C21.9801 3.3198 19.8371 1.17676 17.1936 1.17676C14.55 1.17676 12.407 3.3198 12.407 5.96334C12.407 8.60688 14.55 10.7499 17.1936 10.7499Z" fill="white"/>
<path fill-rule="evenodd" clip-rule="evenodd" d="M21.3475 10.2143C20.2713 11.2404 18.8063 11.8718 17.1923 11.8718C15.5783 11.8718 14.1133 11.2404 13.0371 10.2143C12.8517 10.1683 12.6664 10.1229 12.4864 10.1C12.3064 10.077 12.1323 10.077 11.97 10.1021C11.8081 10.1267 11.6586 10.1769 11.4839 10.2394C11.3093 10.3014 11.1101 10.3761 10.8607 10.5257C10.6118 10.6753 10.3121 10.8996 10.0259 11.2741C9.73907 11.6474 9.46508 12.1714 9.21566 12.7948C8.96624 13.4176 8.74192 14.1409 8.61748 14.839C8.49303 15.5366 8.46793 16.2102 8.45565 16.7209C8.44283 17.232 8.44283 17.5814 8.49303 17.9179C8.5427 18.2544 8.64204 18.5781 8.8669 18.9024C9.09121 19.2266 9.43998 19.5508 9.85122 19.7997C10.2625 20.0492 10.7362 20.2239 11.3846 20.3109C12.0324 20.398 12.8549 20.398 13.8521 20.398H16.7437H17.1923H17.6409H20.5325C21.5296 20.398 22.3521 20.398 23 20.3109C23.6484 20.2239 24.1221 20.0492 24.5334 19.7997C24.9446 19.5508 25.2934 19.2266 25.5177 18.9024C25.7425 18.5781 25.8419 18.2544 25.8915 17.9179C25.9417 17.5814 25.9417 17.232 25.9289 16.7209C25.9166 16.2102 25.8915 15.5366 25.7671 14.839C25.6427 14.1409 25.4183 13.4176 25.1689 12.7948C24.9195 12.1714 24.6455 11.6474 24.3587 11.2741C24.0724 10.8996 23.7728 10.6753 23.5239 10.5257C23.2745 10.3761 23.0753 10.3014 22.9006 10.2394C22.726 10.1769 22.5764 10.1267 22.4146 10.1021C22.2523 10.077 22.0781 10.077 21.8982 10.1C21.7182 10.1229 21.5328 10.1683 21.3475 10.2143Z" fill="white"/>
<path fill-rule="evenodd" clip-rule="evenodd" d="M22.2929 8.32217C23.1436 9.09883 24.2763 9.57317 25.519 9.57317C28.1618 9.57317 30.3043 7.43013 30.3043 4.78658C30.3043 2.14304 28.1618 0 25.519 0C23.8218 0 22.3303 0.88403 21.4812 2.21675C22.4392 3.0917 23.0406 4.35231 23.0406 5.75234C23.0406 6.6978 22.7661 7.58022 22.2929 8.32217Z" fill="white"/>
<path fill-rule="evenodd" clip-rule="evenodd" d="M11.7071 8.32217C10.8564 9.09883 9.72372 9.57317 8.48105 9.57317C5.83816 9.57317 3.69566 7.43013 3.69566 4.78658C3.69566 2.14304 5.83816 0 8.48105 0C10.1782 0 11.6697 0.88403 12.5188 2.21675C11.5608 3.0917 10.9594 4.35231 10.9594 5.75234C10.9594 6.6978 11.2339 7.58022 11.7071 8.32217Z" fill="white"/>
<path fill-rule="evenodd" clip-rule="evenodd" d="M29.4097 9.21429C28.3652 10.2094 26.9552 10.8339 25.3977 10.8702L25.5697 11.0764C25.8567 11.4497 26.1308 11.9737 26.3803 12.5971C26.6298 13.2199 26.8542 13.9432 26.9787 14.6413C27.1032 15.3389 27.1283 16.0125 27.1406 16.5232C27.1534 17.0343 27.1534 17.3837 27.1032 17.7202C27.0535 18.0567 26.9541 18.3804 26.7292 18.7047C26.5619 18.9461 26.3258 19.1881 26.0463 19.398H28.5944C29.5919 19.398 30.4147 19.398 31.0628 19.3109C31.7115 19.2239 32.1854 19.0492 32.5968 18.7997C33.0082 18.5508 33.3571 18.2266 33.5815 17.9024C33.8064 17.5781 33.9058 17.2544 33.9555 16.9179C34.0057 16.5814 34.0057 16.232 33.9929 15.7209C33.9806 15.2102 33.9555 14.5366 33.831 13.839C33.7065 13.1409 33.4821 12.4176 33.2326 11.7948C32.9831 11.1714 32.709 10.6474 32.4221 10.2741C32.1357 9.89961 31.836 9.67526 31.587 9.5257C31.3375 9.37614 31.1382 9.30135 30.9635 9.23939C30.7887 9.17689 30.6391 9.12668 30.4772 9.10211C30.3148 9.07701 30.1406 9.07701 29.9606 9.09998C29.7805 9.12294 29.5951 9.16835 29.4097 9.21429Z" fill="white"/>
<path fill-rule="evenodd" clip-rule="evenodd" d="M4.59028 9.21429C5.63482 10.2094 7.04483 10.8339 8.60229 10.8702L8.43025 11.0764C8.14334 11.4497 7.86924 11.9737 7.61973 12.5971C7.37021 13.2199 7.14581 13.9432 7.02132 14.6413C6.89683 15.3389 6.87171 16.0125 6.85943 16.5232C6.8466 17.0343 6.8466 17.3837 6.89683 17.7202C6.94652 18.0567 7.04589 18.3804 7.27083 18.7047C7.43807 18.9461 7.67423 19.1881 7.95366 19.398H5.40561C4.40808 19.398 3.58527 19.398 2.93717 19.3109C2.28854 19.2239 1.81462 19.0492 1.40321 18.7997C0.991804 18.5508 0.642909 18.2266 0.418506 17.9024C0.193568 17.5781 0.0941889 17.2544 0.0444996 16.9179C-0.00572413 16.5814 -0.00572413 16.232 0.00709894 15.7209C0.0193877 15.2102 0.0444996 14.5366 0.16899 13.839C0.293481 13.1409 0.517885 12.4176 0.7674 11.7948C1.01692 11.1714 1.29101 10.6474 1.57792 10.2741C1.86431 9.89961 2.16405 9.67526 2.41303 9.5257C2.66254 9.37614 2.86183 9.30135 3.03655 9.23939C3.21126 9.17689 3.36087 9.12668 3.52276 9.10211C3.68518 9.07701 3.85936 9.07701 4.03942 9.09998C4.21948 9.12294 4.40488 9.16835 4.59028 9.21429Z" fill="white"/>
</svg>
