<svg width="35" height="28" viewBox="0 0 35 28" fill="none" xmlns="http://www.w3.org/2000/svg">
<path fill-rule="evenodd" clip-rule="evenodd" d="M11.6349 14.3045C15.1525 14.3045 18.0042 11.4528 18.0042 7.93519C18.0042 4.41756 15.1525 1.56592 11.6349 1.56592C8.11726 1.56592 5.26562 4.41756 5.26562 7.93519C5.26562 11.4528 8.11726 14.3045 11.6349 14.3045Z" fill="white"/>
<path fill-rule="evenodd" clip-rule="evenodd" d="M17.1641 13.5917C15.7321 14.9571 13.7827 15.7972 11.635 15.7972C9.48726 15.7972 7.53784 14.9571 6.10581 13.5917C5.8592 13.5306 5.61259 13.4701 5.37309 13.4396C5.13359 13.409 4.9019 13.409 4.68585 13.4424C4.47051 13.4751 4.27152 13.5419 4.03913 13.6251C3.80673 13.7075 3.54165 13.807 3.20975 14.0061C2.87857 14.2051 2.47988 14.5036 2.09895 15.0019C1.71731 15.4987 1.35273 16.196 1.02084 17.0254C0.688946 17.8542 0.390458 18.8166 0.224867 19.7456C0.0592772 20.6739 0.0258748 21.5702 0.00952903 22.2497C-0.00752747 22.9299 -0.00752747 23.3947 0.0592772 23.8425C0.125371 24.2903 0.257559 24.721 0.556758 25.1525C0.855247 25.5839 1.31933 26.0154 1.86656 26.3466C2.41378 26.6785 3.04416 26.9109 3.90694 27.0268C4.769 27.1426 5.86346 27.1426 7.19032 27.1426H11.038H11.635H12.2319H16.0796C17.4064 27.1426 18.5009 27.1426 19.363 27.0268C20.2257 26.9109 20.8561 26.6785 21.4034 26.3466C21.9506 26.0154 22.4147 25.5839 22.7132 25.1525C23.0124 24.721 23.1445 24.2903 23.2106 23.8425C23.2774 23.3947 23.2774 22.9299 23.2604 22.2497C23.244 21.5702 23.2106 20.6739 23.045 19.7456C22.8795 18.8166 22.581 17.8542 22.2491 17.0254C21.9172 16.196 21.5526 15.4987 21.171 15.0019C20.79 14.5036 20.3913 14.2051 20.0602 14.0061C19.7283 13.807 19.4632 13.7075 19.2308 13.6251C18.9984 13.5419 18.7994 13.4751 18.5841 13.4424C18.368 13.409 18.1363 13.409 17.8968 13.4396C17.6573 13.4701 17.4107 13.5306 17.1641 13.5917Z" fill="white"/>
<path fill-rule="evenodd" clip-rule="evenodd" d="M18.4239 11.0739C19.5558 12.1074 21.063 12.7385 22.7166 12.7385C26.2333 12.7385 29.0843 9.88691 29.0843 6.36927C29.0843 2.85164 26.2333 0 22.7166 0C20.4583 0 18.4736 1.17634 17.3438 2.94973C18.6186 4.11398 19.4187 5.79141 19.4187 7.65436C19.4187 8.91243 19.0535 10.0866 18.4239 11.0739Z" fill="white"/>
<path fill-rule="evenodd" clip-rule="evenodd" d="M27.8933 12.2606C26.5034 13.5848 24.6271 14.4157 22.5547 14.464L22.7836 14.7384C23.1654 15.2352 23.5301 15.9325 23.8621 16.762C24.1942 17.5907 24.4928 18.5531 24.6584 19.4821C24.8241 20.4104 24.8575 21.3067 24.8738 21.9862C24.8909 22.6664 24.8909 23.1312 24.8241 23.579C24.758 24.0268 24.6257 24.4576 24.3264 24.889C24.1039 25.2103 23.7896 25.5323 23.4178 25.8116H26.8084C28.1357 25.8116 29.2306 25.8116 30.093 25.6957C30.9561 25.5799 31.5867 25.3475 32.1342 25.0155C32.6816 24.6843 33.1459 24.2529 33.4445 23.8214C33.7438 23.39 33.876 22.9592 33.9421 22.5114C34.009 22.0637 34.009 21.5988 33.9919 20.9186C33.9755 20.2391 33.9421 19.3428 33.7765 18.4145C33.6108 17.4855 33.3122 16.5232 32.9802 15.6944C32.6482 14.8649 32.2835 14.1676 31.9017 13.6708C31.5206 13.1725 31.1218 12.874 30.7904 12.675C30.4584 12.476 30.1932 12.3765 29.9608 12.294C29.7283 12.2109 29.5292 12.1441 29.3138 12.1114C29.0976 12.078 28.8659 12.078 28.6263 12.1085C28.3867 12.1391 28.14 12.1995 27.8933 12.2606Z" fill="white"/>
</svg>
