<svg width="514" height="440" viewBox="0 0 514 440" fill="none" xmlns="http://www.w3.org/2000/svg">
<path opacity="0.7" d="M75.8247 108.684L263.119 403.141L451.163 108.684H75.8247Z" stroke="#2B2B39" stroke-linecap="round" stroke-linejoin="round" stroke-dasharray="3 3"/>
<circle cx="424.35" cy="114.619" r="84.6" fill="white"/>
<circle cx="424.35" cy="114.619" r="83.6" stroke="#FFAF2E" stroke-opacity="0.6" stroke-width="2"/>
<mask id="mask0_50:2" style="mask-type:alpha" maskUnits="userSpaceOnUse" x="271" y="0" width="243" height="238">
<path d="M508.951 114.619C508.951 67.8961 471.074 0 424.351 0C380.943 0 345.17 58.6027 340.312 104.386C297.21 98.9275 239.459 77.7775 291.993 117.348C312.833 133.046 325.658 155.782 350.678 156.237C365.206 181.9 392.756 199.219 424.351 199.219C447.602 199.219 468.662 189.84 483.954 174.658L479.939 212.541C479.939 285.542 528.948 184.483 508.951 114.619Z" fill="#C4C4C4"/>
</mask>
<g mask="url(#mask0_50:2)">
<path d="M420.368 68.8782C397.602 87.0381 399.923 125.646 398.549 146.661C397.583 161.362 394.557 182.43 392.635 194.487L435.289 200.768V126.853C435.289 102.215 437.004 71.9352 443.725 65.4132C439.044 64.8946 434.91 65.0275 432.076 65.4132C429.829 65.3952 427.016 65.774 423.936 67.0206C422.581 67.824 421.585 68.1839 420.368 68.8782Z" fill="white"/>
<path opacity="0.5" d="M420.368 68.8779C397.602 87.0378 399.923 125.646 398.549 146.66C397.583 161.361 394.557 182.43 392.635 194.487C408.857 200.456 415.965 201.877 435.289 200.767V126.853C435.289 107.807 436.314 85.389 439.887 73.1815C436.043 79.3422 430.716 109.077 431.529 126.853C432.343 144.63 431.801 179.26 426.651 188.903C421.497 198.547 394.932 191.314 397.371 183.814C399.81 176.313 399.81 151.936 401.978 123.81C403.713 101.308 414.963 77.8127 420.368 68.8779Z" fill="#FFB83B"/>
<path d="M426.653 188.903C421.498 198.547 394.933 191.314 397.373 183.814C403.606 193.457 418.517 190.51 420.956 186.76C423.396 183.01 427.195 173.634 427.195 157.83C427.195 145.186 430.447 120.952 432.073 110.416C431.541 116.303 431.309 122.02 431.531 126.853C432.344 144.63 431.802 179.26 426.653 188.903Z" fill="#FFF9EF"/>
<path d="M401.978 123.81C403.338 106.228 410.498 88.0394 416.145 76.6641C412.957 83.5396 406.644 101.309 406.861 117.381C407.078 133.454 402.229 153.544 399.775 161.581C400.352 151.027 400.894 137.889 401.978 123.81Z" fill="#FFF9EF"/>
<path d="M388.424 223.728L378.933 222.389C380.382 212.474 390.429 164.045 394.593 132.168C395.5 125.214 396.441 117.939 397.397 110.429C401.088 81.3428 413.865 72.7673 423.933 67.0215C401.167 85.1813 399.92 125.647 398.545 146.662C397.579 161.363 394.554 182.431 392.632 194.488C392.356 196.219 388.645 222.414 388.424 223.728Z" fill="#FFAF2E"/>
<path d="M394.593 132.166C395.5 125.212 396.441 117.936 397.397 110.427C397.116 119.531 396.441 134.49 394.593 149.792C391.119 178.575 387.34 204.707 378.933 222.386C380.382 212.472 390.429 164.042 394.593 132.166Z" fill="#F3A00D"/>
<path d="M479.511 222.924C474.903 202.833 468.123 123.81 468.123 123.81C468.123 123.81 473.588 95.9246 464.6 82.2894C458.854 73.5678 443.726 65.4131 443.726 65.4131C437.005 71.9351 435.29 102.215 435.29 126.853V200.767V226.406C446.978 228.817 466.497 229.888 479.511 222.924Z" fill="#FFAF2E"/>
<path d="M438.705 78.0029C436.083 90.73 435.29 110.096 435.29 126.853V189.975C436.428 180.688 438.463 156.329 437.493 133.185C436.522 110.04 437.897 86.7532 438.705 78.0029Z" fill="#F9A319"/>
<path d="M479.511 222.923C474.903 202.833 468.123 123.81 468.123 123.81C468.123 123.81 473.588 95.9243 464.6 82.2891C464.6 96.754 457.553 116.309 461.618 135.864C467.088 162.161 471.646 186.224 466.497 204.44C462.377 219.012 443.972 225.155 435.29 226.405C446.978 228.816 466.497 229.888 479.511 222.923Z" fill="#F9A319"/>
<path d="M509.598 144.168C511.224 127.56 494.963 103.183 476.528 84.968C468.328 76.8663 451.589 67.2883 443.725 65.4131L468.121 123.81C468.121 123.81 475.7 132.167 485.344 146.661C488.33 140.138 500.925 135.864 509.598 144.168Z" fill="#FFAF2E"/>
<path d="M509.599 144.169C511.225 127.56 494.959 103.184 476.529 84.9682C472.247 80.7387 465.639 76.1064 459.179 72.3779C461.258 75.9496 465.737 84.1112 467.038 88.1825C468.665 93.2724 503.636 113.617 500.655 139.742C503.745 140.183 506.864 141.551 509.599 144.169Z" fill="#F9A319"/>
<path d="M482.443 139.739C482.955 134.681 487.774 131.731 491.189 130.888C498.867 128.992 506.539 131.31 510.378 137C513.729 141.962 509.954 149.222 506.539 151.961C507.18 142.478 503.558 139.107 495.664 140.371C487.774 141.635 485.429 146.482 485.005 150.697C483.083 149.222 481.802 146.061 482.443 139.739Z" fill="#F9A319"/>
<path d="M495.663 140.371C487.773 141.635 485.428 146.482 484.999 150.697C485.714 159.477 487.005 180.115 486.492 192.421C485.857 207.804 484.999 213.072 482.23 219.816C479.455 226.559 483.122 233.563 488.453 232.299C493.785 231.034 498.136 224.873 496.86 219.816C495.579 214.758 496.86 209.7 498.989 206.118C501.122 202.536 506.538 171.769 506.538 151.961C507.179 142.478 503.552 139.107 495.663 140.371Z" fill="#FFD0B7"/>
<path d="M397.399 110.429C401.09 81.3428 413.868 72.7673 423.935 67.0215C415.518 71.5023 396.542 76.6648 382.7 101.009C370.943 121.685 362.009 127.13 358.338 128.097C362.772 132.203 370.455 144.551 369.72 152.473C374.495 148.995 388.18 137.322 394.595 132.168C395.502 125.214 396.443 117.939 397.399 110.429Z" fill="#FFAF2E"/>
<path d="M394.594 132.166C395.5 125.212 396.442 117.936 397.398 110.427C394.781 123.565 384.901 131.309 379.481 133.184C375.139 134.684 370.773 142.917 369.137 146.846C369.645 148.842 369.877 150.76 369.719 152.471C374.494 148.993 388.178 137.319 394.594 132.166Z" fill="#F9A319"/>
<path d="M365.558 140.971C362.523 131.594 358.068 128.677 356.166 128.364C356.802 127.739 358.487 126.295 360.576 125.732C363.183 125.029 370.54 125.732 373.861 131.125C376.675 135.691 379.794 143.081 373.861 150.349C369.116 156.164 358.916 155.585 354.407 154.57C359.389 153.944 368.293 149.412 365.558 140.971Z" fill="#F9A319"/>
<path d="M354.405 154.569C359.387 153.944 368.292 149.411 365.557 140.971C363.374 134.226 360.506 129.435 356.165 128.363C355.14 128.741 353.124 129.576 345.151 126.2C335.188 121.98 302.683 107.209 300.31 105.099C297.937 102.99 292.718 95.7215 285.363 95.9557C278.008 96.1904 280.617 109.554 289.396 111.899C298.175 114.243 305.53 120.573 309.8 125.263C314.071 129.951 337.085 152.693 354.405 154.569Z" fill="#FFD0B7"/>
<path d="M423.707 67.0301V52.4877L443.723 42.9111V65.4125C434.799 81.8505 422.894 77.6668 423.707 67.0301Z" fill="#FFD0B7"/>
<path d="M425.921 51.4296L443.724 42.9111V65.4125C443.71 65.4451 443.69 65.4773 443.675 65.5099C442.778 67.147 441.857 68.5776 440.916 69.8164C437.604 64.889 428.848 57.2432 423.708 53.4246V52.6694L425.921 51.4296Z" fill="url(#paint0_linear_50:2)"/>
<path d="M413.773 15.8305C413.773 24.3656 418.104 25.4037 421.292 24.9533L440.786 45.9018C441.013 46.3522 443.196 48.2094 443.196 52.5919C443.196 57.0361 446.734 47.8126 449.355 45.9018C454.786 41.9464 458.476 41.8291 460.196 35.3056C461.675 29.7058 459.59 25.7416 457.88 24.9533C456.855 24.5029 455.761 23.5344 454.12 23.2641C452.479 22.9934 452.066 20.2232 452.066 18.8715C451.952 17.8581 451.509 16.4485 448.892 14.8167C447.266 13.8034 443.063 13.3525 441.466 14.8167C440.441 15.3801 438.115 15.9659 437.021 13.8034C435.927 11.6409 433.601 12.4517 432.577 13.1271C429.571 14.2081 422.598 11.0327 419.888 2.72852C416.635 7.01454 413.773 9.96099 413.773 15.8305Z" fill="#2B2B39"/>
<path d="M457.881 24.9533C456.856 24.5024 455.762 23.5339 454.122 23.2637C462.577 29.4819 455.762 39.4446 450.342 42.1228C446.006 44.2653 443.773 49.9946 443.197 52.5919C443.197 57.0357 446.735 47.8121 449.356 45.9014C454.787 41.946 458.478 41.8286 460.197 35.3056C461.676 29.7059 459.591 25.7412 457.881 24.9533Z" fill="#13131C"/>
<path d="M432.579 13.1271C429.573 14.2081 422.6 11.0323 419.89 2.72852C419.939 7.72352 422.403 17.3371 431.864 15.8305C433.342 15.3412 435.067 14.3673 437.038 16.315C439.009 18.2628 443.996 13.8029 448.894 14.8167C447.268 13.8029 443.065 13.352 441.468 14.8167C440.443 15.3796 438.117 15.9654 437.023 13.8029C435.93 11.6404 433.609 12.4512 432.579 13.1271Z" fill="#13131C"/>
<path d="M431.214 53.3354C439.148 50.9027 442.267 45.3389 442.839 42.8614C443.07 41.8476 443.637 39.0321 443.523 37.7933C442.701 35.3606 440.217 38.8067 439.079 40.8343C437.556 43.5373 437.28 34.0766 439.079 31.7115C441.538 28.4675 437.709 27.6086 435.999 26.6435C435.201 26.1925 432.993 25.4271 430.529 25.9676C428.065 26.5081 426.769 25.0663 426.424 24.2779C425.513 22.8142 423.143 20.7642 420.955 24.2779C415.756 32.1171 416.737 42.411 417.88 46.5782C419.018 49.8441 423.281 55.7681 431.214 53.3354Z" fill="#FFD0B7"/>
</g>
<circle cx="85.6878" cy="108.82" r="85.6878" fill="white"/>
<circle cx="85.6878" cy="108.82" r="84.6878" stroke="#217BF4" stroke-opacity="0.6" stroke-width="2"/>
<mask id="mask1_50:2" style="mask-type:alpha" maskUnits="userSpaceOnUse" x="0" y="0" width="193" height="216">
<path d="M0 109.194C0 61.8702 38.3637 0.076236 85.6877 0.076236C199.76 -3.13705 196.591 96.0287 190.12 146.013H163.084C149.312 174.911 119.832 194.882 85.6877 194.882C74.3245 194.882 63.4778 192.67 53.5548 188.653C52.8811 188.381 52.2116 188.1 51.5465 187.81C49.3151 193.292 44.9861 205.995 45.5216 212.957C34.8106 221.659 8.558 204.79 10.705 150.699C3.88406 138.403 0 124.252 0 109.194Z" fill="#C4C4C4"/>
</mask>
<g mask="url(#mask1_50:2)">
<path d="M183.927 126.408C178.686 127.997 172.185 130.242 167.36 129.07C163.493 128.131 163.784 126.91 163.347 124.347C164.573 122.269 169.753 118.273 179.782 116.234C192.317 113.685 193.144 123.612 183.927 126.408Z" fill="#FEBE9D"/>
<path d="M126.932 88.9588C125.389 85.2089 121.143 84.5841 119.214 84.7402C105.154 90.3649 113.7 130.91 117.008 136.3C120.316 141.691 124.176 143.8 128.035 145.441C131.895 147.081 139.614 146.144 141.543 144.972C143.473 143.8 144.025 142.628 146.23 142.394C148.435 142.159 152.019 141.456 153.398 140.05C154.776 138.644 155.879 137.238 159.187 137.238C162.495 137.238 165.252 134.894 166.354 133.488C167.457 132.082 168.284 131.847 170.214 131.379C172.144 130.91 174.074 130.91 174.625 128.567C175.176 126.223 175.452 121.535 175.176 119.192C174.901 116.848 174.901 116.848 173.522 117.083C172.144 117.317 168.56 119.192 167.457 119.192C166.354 119.192 164.425 118.958 162.495 119.661C160.565 120.364 154.225 122.942 150.089 124.114C145.954 125.285 139.889 125.52 140.441 123.879C140.992 122.239 142.922 117.552 139.062 117.552C135.203 117.552 135.203 114.973 133.549 109.583C131.895 104.193 128.862 93.6461 126.932 88.9588Z" fill="#217BF4"/>
<path d="M167.734 129.505C168.928 129.427 171.648 128.943 172.972 127.631M168.837 121.772C169.664 121.069 171.814 119.662 173.799 119.662L168.837 121.772ZM170.766 122.943L172.972 122.006L170.766 122.943ZM168.01 126.225C169.296 126.068 172.2 125.474 173.523 124.349L168.01 126.225Z" stroke="#2068D9" stroke-width="1.07894"/>
<path d="M168.482 131.864C167.978 129.995 167.477 127.077 168.009 124.816C167.457 126.457 165.859 130.3 163.874 132.55C161.393 135.363 158.36 135.128 157.809 132.784C157.257 130.441 153.949 131.847 152.846 134.66C151.744 137.472 149.262 140.987 145.127 141.222C141.254 141.441 139.316 142.277 138.18 142.768C138.103 142.801 138.03 142.832 137.96 142.862C136.857 143.331 137.133 141.456 138.236 140.284C139.338 139.112 140.717 136.066 140.441 134.425C139.063 137.003 136.306 140.519 131.895 141.69C127.484 142.862 125.003 140.05 128.311 137.472C131.619 134.894 134.1 132.55 134.927 130.441C135.24 129.644 134.804 129.918 133.933 130.466C132.499 131.369 129.885 133.013 127.484 131.847C123.624 129.972 124.176 124.582 127.208 123.644C128.177 123.345 129.625 123.261 131.182 123.17C134.498 122.977 138.312 122.755 139.063 120.363C137.409 121.301 127.76 122.707 127.484 116.848C127.208 110.989 126.657 107.004 125.278 103.724C124.821 102.634 124.606 101.208 124.383 99.7209C123.932 96.7302 123.445 93.492 120.868 92.2396C120.132 91.8823 117.089 92.0189 112.932 92.7397C108.65 106.457 114.425 132.092 117.008 136.3C120.316 141.691 124.176 143.8 128.035 145.441C131.895 147.081 139.614 146.144 141.544 144.972C142.174 144.589 142.658 144.206 143.1 143.855C144.011 143.134 144.746 142.552 146.23 142.394C148.435 142.159 152.019 141.456 153.398 140.05C153.497 139.949 153.594 139.848 153.691 139.748C154.946 138.449 156.116 137.238 159.187 137.238C162.495 137.238 165.252 134.894 166.354 133.488C167.057 132.592 167.647 132.172 168.482 131.864Z" fill="#1771EA"/>
<path d="M119.68 139.876C121.05 138.354 123.377 136.214 125.554 135.597C128.863 134.66 127.209 134.191 124.452 135.128C121.695 136.066 121.143 135.362 120.868 132.316C120.592 129.269 121.695 123.879 123.349 120.129C125.003 116.379 127.209 104.661 122.522 100.208C120.366 98.1599 115.819 98.3925 111.563 100.496C110.499 114.458 114.859 132.798 117.008 136.3C117.865 137.696 118.759 138.872 119.68 139.876Z" fill="#2068D9"/>
<path d="M165.803 129.74C168.229 126.928 167.917 121.849 167.457 119.662C168.192 121.537 169.222 125.943 167.457 128.568C165.252 131.849 165.252 130.443 165.803 129.74Z" fill="#3881F2"/>
<path d="M99.3665 197.469C107.526 194.282 118.388 195.829 122.799 197.001C123.351 197.141 123.902 197.001 125.004 193.72C126.107 190.439 125.28 182.236 125.004 181.533C124.729 180.83 124.729 180.361 125.004 179.19C126.383 171.456 121.145 152.941 118.939 142.629C116.734 132.317 119.767 122.708 122.799 115.678C125.832 108.646 123.35 99.5065 122.523 90.132C121.696 80.7574 112.323 80.0543 99.642 77.4762C86.9607 74.8984 70.6958 74.8984 63.5281 90.3663C56.3605 105.834 62.9767 125.989 63.5281 137.473C64.0793 148.957 58.566 158.8 54.982 168.878C51.3983 178.955 52.2254 186.455 51.1224 193.017C50.2402 198.267 52.0413 200.517 53.0524 200.985C53.1442 202.157 53.3279 205.298 53.3279 208.485C53.3279 212.469 54.982 214.578 59.1171 214.344C63.2522 214.109 69.8688 211.766 75.658 208.016C81.4471 204.267 89.1662 201.454 99.3665 197.469Z" fill="#217BF4"/>
<path d="M99.6422 153.175C92.1438 158.8 82.9176 157.706 79.2421 156.456C79.2421 157.472 81.0066 160.018 88.0639 162.081C96.8856 164.659 102.95 158.8 105.431 154.113C107.416 150.363 111.772 145.051 113.702 142.863C112.14 143.957 107.141 147.551 99.6422 153.175Z" fill="#3881F2"/>
<path d="M122.799 196.999C118.388 195.828 107.526 194.281 99.3661 197.468C98.2468 197.905 97.1567 198.329 96.0961 198.74C87.4947 202.081 80.8118 204.677 75.658 208.015C69.8688 211.764 63.2522 214.108 59.1171 214.342C54.982 214.577 53.3279 212.468 53.3279 208.483C53.3279 205.296 53.1442 202.156 53.0524 200.984C52.0413 200.515 50.2402 198.265 51.1224 193.015C51.4762 190.912 51.6313 188.711 51.7972 186.36C52.1482 181.379 52.5474 175.723 54.982 168.876C55.8111 166.545 56.7436 164.226 57.6803 161.896C60.7925 154.156 63.9518 146.298 63.5281 137.471C63.3818 134.428 62.8097 130.775 62.1807 126.761C60.4376 115.632 58.2604 101.733 63.5281 90.3645C63.6186 90.1696 63.7105 89.9769 63.8037 89.7869C74.6406 81.1523 85.3877 77.4758 94.3973 76.6104C96.1893 76.8318 97.9478 77.1304 99.642 77.4747C100.999 77.7507 102.319 78.0053 103.594 78.2511C108.531 79.2032 112.805 80.0274 116.04 81.474C116.595 82.0077 117.014 82.5542 117.285 83.0987C121.145 90.8325 113.15 99.7384 106.81 104.191C100.469 108.644 101.848 110.519 109.015 108.644C115.368 106.982 114.358 107.529 106.559 111.755C105.559 112.297 104.448 112.899 103.226 113.565C92.4743 119.424 104.604 117.08 113.426 115.205C122.248 113.33 120.594 117.783 118.664 119.658C117.855 120.443 116.951 120.899 116.151 121.303C115.043 121.862 114.138 122.318 113.977 123.408C113.701 125.283 111.772 127.392 109.291 128.329C109.095 128.403 108.895 128.477 108.693 128.552C106.339 129.426 103.647 130.426 102.123 133.016C100.469 135.829 96.3339 136.297 91.3718 136.063C86.4093 135.828 79.7931 137.703 85.8582 142.625C91.9229 147.546 100.469 144.031 104.88 142.156C94.6799 152.937 80.0686 144.968 77.312 141.218C74.5554 137.469 73.1769 136.297 69.5929 137.234C66.0092 138.172 64.9066 142.624 68.2147 143.561C69.6805 143.977 71.2005 143.794 72.4389 143.645C73.9952 143.458 75.1065 143.324 75.1065 144.499C75.1065 146.284 70.7611 149.413 66.9187 152.179C66.2216 152.681 65.5412 153.171 64.9066 153.639C60.7711 156.685 65.4578 159.264 68.4903 160.201C71.5228 161.138 70.6958 162.31 65.7337 166.998C58.8416 173.796 72.0743 180.123 84.2041 172.857C93.908 167.045 102.399 166.529 105.431 166.998C101.939 167.858 93.4669 170.935 87.5122 176.373C82.4931 180.955 75.8448 182.235 69.9334 183.373C67.0779 183.922 64.3943 184.439 62.1496 185.278C55.2575 187.856 58.8415 193.012 64.6307 193.247C67.7188 193.372 73.1598 190.43 79.4058 187.052C84.8698 184.097 90.9495 180.81 96.6095 178.951C108.739 174.967 117.01 178.013 121.421 179.655C114.253 179.186 94.1284 185.045 83.6526 190.904C78.5857 193.738 74.8086 194.817 71.5106 195.76C67.9898 196.766 65.0146 197.616 61.5982 200.278C54.982 205.434 63.8037 208.95 70.1443 208.013C72.9771 207.593 76.9648 205.304 81.5184 202.69C87.1577 199.452 93.6642 195.716 99.9176 194.419C108.282 192.685 118.865 194.561 124.114 195.965C123.556 197.059 123.178 197.095 122.799 196.999Z" fill="#1771EA"/>
<path d="M63.1715 133.541C64.3121 132.161 65.9554 130.065 66.8362 128.567C68.2143 126.224 69.0413 125.286 70.9713 126.927C72.9009 128.567 75.9334 128.333 77.5875 126.458C77.555 126.587 77.5225 126.715 77.4904 126.841C76.7056 129.919 76.1611 132.055 81.7226 131.38C83.7563 131.133 86.6746 131.464 89.4973 131.785C94.7102 132.377 99.5972 132.932 97.9879 129.739C95.5065 124.818 93.8524 112.865 98.8149 108.647C102.784 105.272 106.166 100.522 107.361 98.569C109.566 94.1161 109.346 85.4449 90.8202 86.3823C83.4664 86.7542 75.4455 85.2119 67.9405 83.7217C66.2456 85.5266 64.7536 87.7195 63.5277 90.3651C58.26 101.733 60.4376 115.633 62.1807 126.761C62.5579 129.169 62.9148 131.446 63.1715 133.541Z" fill="#2068D9"/>
<path d="M112.048 188.328C117.782 188.515 119.031 184.968 118.94 183.172C118.94 181.766 120.594 181.766 119.767 187.859C118.94 193.953 109.015 190.671 100.469 191.374C91.923 192.077 79.7932 197.469 76.7607 199.109C91.6475 188.093 104.88 188.093 112.048 188.328Z" fill="#3881F2"/>
<path d="M118.386 180.594C119.029 183.015 120.205 189.125 119.764 194.187M57.4609 202.389C57.4609 204.108 57.6264 208.248 58.2879 211.061L57.4609 202.389ZM64.0775 199.343C64.7204 201.452 65.9519 206.139 65.7315 208.014L64.0775 199.343ZM68.4881 196.999C68.9477 198.639 69.8666 203.186 69.8666 208.248L68.4881 196.999ZM74.0018 197.468V203.561V197.468ZM78.4124 194.187C78.9639 195.593 79.9013 199.061 79.2394 201.686L78.4124 194.187ZM82.8235 191.609C83.2831 193.171 84.202 196.905 84.202 199.343L82.8235 191.609ZM88.3371 190.203V196.296V190.203ZM93.5748 187.156C94.0344 189.187 94.6777 193.999 93.5748 196.999V187.156ZM97.4343 185.984C98.0777 187.312 99.2539 190.671 98.8128 193.484L97.4343 185.984ZM104.051 184.812C104.051 186.844 104.051 191.093 104.051 191.843V184.812ZM107.635 182.937C107.91 184.812 108.462 189.359 108.462 192.546L107.635 182.937ZM115.078 185.75C115.17 187.625 115.188 191.796 114.527 193.484L115.078 185.75Z" stroke="#2068D9" stroke-width="1.07894"/>
<path d="M60.22 198.173C78.2308 189.971 116.293 174.362 123.35 180.362" stroke="#3881F2" stroke-width="1.07894"/>
<path d="M51.1224 193.016C50.2402 198.265 52.0413 200.515 53.0524 200.984C53.096 201.543 53.161 202.55 53.2165 203.796C55.735 201.765 61.3226 197.421 63.5281 196.297C59.393 197.469 53.9321 199.812 53.2165 194.656C52.5009 189.5 55.2575 184.11 56.9116 181.298C58.566 178.485 60.5441 170.048 58.4525 159.971C57.2643 162.951 56.0392 165.903 54.982 168.876C51.3983 178.954 52.2254 186.454 51.1224 193.016Z" fill="#2068D9"/>
<path d="M30.9917 204.802C31.3686 199.338 32.3269 192.692 35.137 188.599C37.389 185.318 38.4273 186.024 40.9775 186.526C42.4849 188.41 45.085 194.703 43.4268 204.802C41.3543 217.425 30.3292 214.411 30.9917 204.802Z" fill="#FEBE9D"/>
<path d="M29.6187 197.001C30.0598 196.063 30.3539 194.735 30.4457 194.188C31.2728 188.095 30.4457 182.236 30.4457 172.158C30.4457 162.081 32.9272 151.535 35.1323 147.785C37.3378 144.035 36.7864 140.754 37.8893 138.879C38.9919 137.004 42.3 134.895 41.1974 128.567C40.0945 122.239 43.954 121.536 44.2299 113.568C44.5055 105.599 46.1596 95.5217 51.3976 88.4906C56.6353 81.4599 75.9328 76.7726 77.8627 90.1314C79.7924 103.49 72.6247 112.396 69.5922 118.255C66.56 124.114 62.7004 136.769 62.1489 140.05C61.5975 143.332 59.1164 152.706 59.1164 156.69C59.1164 160.674 58.0138 167.939 56.3598 174.268C54.7057 180.595 51.1217 188.329 50.0191 189.032C48.9165 189.736 48.3651 190.204 48.3651 191.376C48.3651 192.548 47.8136 196.532 47.538 197.938C47.2621 199.344 46.9866 199.813 46.1595 199.344C45.3325 198.875 43.954 198.875 41.473 198.875C38.9919 198.875 34.8568 199.344 32.3757 199.11C29.8946 198.875 29.0676 198.172 29.6187 197.001Z" fill="#217BF4"/>
<path d="M40.3714 190.673C35.0785 191.798 32.2849 190.829 31.5497 190.204C33.1119 190.673 36.8248 191.054 39.8199 190.204C42.301 189.501 45.7932 189.579 46.9876 189.97C45.7013 189.97 42.5769 190.111 40.3714 190.673Z" fill="#3881F2"/>
<path d="M44.231 191.141C43.9554 192.078 43.6247 194.187 44.5069 195.125C45.3891 196.062 44.6906 196.922 44.231 197.234M34.5822 193.25C34.766 193.953 34.913 195.734 34.0311 197.234L34.5822 193.25ZM38.4418 191.609L38.1663 196.765L38.4418 191.609Z" stroke="#2068D9" stroke-width="1.07894"/>
<path d="M44.246 198.921C44.9634 197.659 45.7803 195.702 45.6092 193.953C45.3333 191.141 41.4737 190.204 39.2685 190.673C42.0252 189.501 48.0902 186.923 49.7443 181.064C51.3983 175.205 50.8469 171.689 45.6092 171.221C44.5062 171.221 43.4037 170.986 47.2632 168.174C51.1224 165.362 57.1875 159.971 51.3983 156.69C45.6092 153.409 41.7496 150.831 40.9226 147.316C43.6792 149.191 46.9873 151.3 48.3658 151.534C49.5581 151.737 49.5127 151.589 48.9438 149.726C48.8547 149.434 48.7531 149.102 48.6414 148.722C47.8143 145.909 45.8847 138.879 45.8847 136.769C46.7118 139.347 48.0902 143.332 51.6739 144.972C55.2579 146.613 56.3605 142.16 55.809 139.113C55.2579 136.066 54.982 133.723 58.566 131.145C62.1497 128.567 67.9388 119.427 63.8037 115.442C59.6686 111.458 52.2254 104.193 52.5009 98.5683C52.7154 94.1953 52.2631 92.7973 50.2374 90.1887C50.6031 89.6058 50.9897 89.039 51.3983 88.4907C55.1416 83.466 66.0654 79.6386 72.6991 82.7389C73.3194 83.1129 73.9337 83.4922 74.5414 83.8764C76.2398 85.2363 77.45 87.2697 77.8635 90.1314C79.47 101.253 74.7709 109.289 71.402 115.049C70.7244 116.207 70.1007 117.274 69.5929 118.255C66.5607 124.114 62.7011 136.769 62.1497 140.05C61.9792 141.066 61.6233 142.666 61.2137 144.509C60.3 148.619 59.1171 153.939 59.1171 156.69C59.1171 160.674 58.0145 167.939 56.3605 174.268C54.7064 180.595 51.1224 188.329 50.0198 189.032C48.9173 189.736 48.3658 190.204 48.3658 191.376C48.3658 192.548 47.8143 196.532 47.5388 197.938C47.2632 199.344 46.9873 199.813 46.1603 199.344C45.7129 199.091 45.1038 198.974 44.246 198.921Z" fill="#1771EA"/>
<path d="M65.0049 129.925C63.5615 134.305 62.4299 138.384 62.1501 140.049C61.9794 141.064 61.6238 142.664 61.2141 144.507C60.3005 148.617 59.1176 153.938 59.1176 156.689C59.1176 157.932 59.0104 159.495 58.812 161.25C57.3507 158.385 55.0024 155.229 51.9499 154.58C47.1774 153.566 50.0476 153.605 52.1567 153.634C52.4843 153.639 52.7934 153.643 53.0529 153.643C54.9825 153.643 55.8095 152.705 53.604 151.533C51.8399 150.596 49.1933 145.517 48.0904 143.096C49.2851 145.517 52.777 150.361 57.188 150.361C58.5661 150.361 59.6691 149.189 58.842 146.846C58.1072 144.763 60.4193 135.835 65.0049 129.925Z" fill="#2068D9"/>
<path d="M79.5609 73.7745L81.4779 62.874L95.1357 65.7176C94.8164 67.1394 94.8482 71.547 95.6148 76.8552C96.3818 82.1631 98.6502 84.991 99.9281 85.8599L79.5609 73.7745Z" fill="#FEBE9D"/>
<path d="M81.5962 62.874L94.9763 65.7096C94.742 66.772 94.7008 69.5052 95.0106 73.0355C85.4603 71.9011 82.0883 65.7885 81.5962 62.874Z" fill="#F2AD8A"/>
<path d="M73.9937 110.478C73.4918 107.211 75.7511 106.511 77.7593 105.578C78.9851 105.008 80.4918 104.265 81.0227 102.816C84.5469 104.197 88.0712 104.544 93.5747 103.835C93.8258 107.138 94.378 114.771 94.5788 118.878C94.8299 124.011 96.5874 132.178 90.8132 129.378C85.0394 126.578 83.2823 126.345 80.5208 127.045C77.7593 127.744 75.7511 127.045 75.5 122.611C75.2489 118.178 74.4959 111.411 73.9937 110.478Z" fill="#8CB9FF"/>
<path d="M80.0373 127.175C79.269 125.527 78.1084 121.81 78.4765 117.497C78.9746 111.656 80.469 106.983 82.2125 111.422C83.607 114.973 83.9559 119.132 83.9559 120.767C84.9523 120.222 86.9944 117.917 87.1938 113.057C87.4428 106.983 87.6919 107.216 88.4392 110.721C89.1863 114.225 89.4353 114.692 90.1827 110.721C90.2826 110.19 90.3647 109.71 90.4387 109.274C90.9116 106.506 91.0736 105.556 93.5173 105.139C93.4817 104.655 93.4492 104.217 93.4206 103.836C87.9601 104.546 84.4637 104.199 80.967 102.816C80.4404 104.266 78.9456 105.011 77.7291 105.581C77.5632 105.659 77.3953 105.735 77.2276 105.812C75.3822 106.65 73.5364 107.489 73.9932 110.488C74.4912 111.422 75.2383 118.197 75.4877 122.636C75.7234 126.839 77.5217 127.691 80.0373 127.175Z" fill="#7EAEFA"/>
<path opacity="0.5" d="M74.4833 112.614C75.4283 110.63 77.0824 107.899 78.7365 107.436C81.2329 106.737 81.7323 106.271 82.4811 105.572C83.2299 104.873 83.979 105.339 84.2284 106.271C84.4781 107.203 85.2273 106.271 85.976 105.34C86.7248 104.408 88.2228 105.107 88.4725 105.806C88.5615 106.055 88.8738 105.889 89.4088 105.603C90.2401 105.161 91.6098 104.431 93.5174 104.528C93.4989 104.28 93.4814 104.047 93.4654 103.833C87.9923 104.541 84.4879 104.195 80.9832 102.816C80.4551 104.262 78.9572 105.004 77.7379 105.573C77.5717 105.651 77.4034 105.727 77.2354 105.803C75.3854 106.639 73.5358 107.475 73.9933 110.464C74.1414 110.74 74.3111 111.527 74.4833 112.614Z" fill="#70A2F2"/>
<path d="M92.1866 69.2785C83.0897 68.1529 75.8138 60.3405 73.3942 56.7443C68.5553 57.9174 67.5875 57.2126 67.3455 53.929C67.1035 50.6453 73.3942 49.0035 74.604 43.609C75.8138 38.2145 79.9266 28.1295 91.5402 23.4384C103.153 18.7476 113.073 33.9931 113.315 38.6842C113.557 43.375 112.835 54.5363 109.928 60.966C106.851 67.7715 103.558 70.686 92.1866 69.2785Z" fill="#FEBE9D"/>
<path d="M73.8576 56.2785C69.0464 57.4481 67.9162 57.4789 67.6756 54.2061C63.1049 55.1413 53.2421 58.5486 50.3552 64.6965C46.7467 72.3807 50.3552 73.608 52.7608 74.7769C55.1665 75.9455 53.9636 79.218 50.8365 79.6856C47.7093 80.1532 47.4686 77.8157 47.228 76.4131C45.7845 82.7244 50.8365 82.7244 53.0015 81.7895C51.558 85.5296 52.0393 88.3348 55.4071 89.2697C58.7749 90.2047 55.4071 93.7112 55.4071 96.9836C55.4071 100.256 59.0155 102.126 59.2562 104.464C59.4968 106.801 62.3834 107.97 65.2699 108.905C68.1568 109.84 66.954 111.009 65.7512 113.113C64.5484 115.217 66.4728 116.853 66.7134 119.658C66.954 122.463 68.8784 122.697 71.284 123.164C68.8784 119.191 70.3218 117.788 71.7653 116.619L71.8103 116.583C73.2335 115.431 74.4063 114.481 73.9303 111.243C73.449 107.97 75.614 107.269 77.5387 106.334C79.4631 105.399 82.1094 103.996 80.1847 99.7888C78.2603 95.581 84.2744 92.7759 85.7175 88.5684C87.1609 84.3607 83.7931 79.218 82.3497 77.3481C80.9066 75.4778 79.4631 72.673 78.9818 71.5041C78.5009 70.3355 78.9818 70.3355 79.2225 70.5691C80.4253 71.7381 80.6659 70.8028 80.9066 69.6342C81.099 68.6989 81.3075 65.9527 81.3875 64.6965C77.719 62.0907 75.1736 58.2395 73.8576 56.2785Z" fill="#2B2B39"/>
<path d="M94.7203 72.439V69.4152C100.701 69.8381 104.115 68.7397 106.556 66.3613C111.519 72.2053 107.125 77.348 106.403 78.517C104.96 76.6468 102.073 75.9455 101.352 75.9455C100.63 75.9455 99.9084 76.1791 99.1865 75.0105C98.465 73.8416 98.2244 72.439 96.7809 71.504C95.6263 70.7559 94.926 71.8159 94.7203 72.439Z" fill="#2B2B39"/>
<path d="M67.3422 67.0186C68.7975 68.0841 71.2974 71.0835 69.6535 74.555" stroke="#151523" stroke-width="0.8"/>
<path d="M73.8569 69.6562C76.9646 72.0497 82.4555 77.9946 79.5546 82.6271C75.9287 88.4176 75.1516 90.5023 75.1516 94.9032" stroke="#151523" stroke-width="0.8"/>
<path d="M67.7458 98.2948C69.405 97.598 72.1767 94.7184 69.9862 88.7735C67.7954 82.8286 70.567 79.3294 72.2263 78.3232" stroke="#151523" stroke-width="0.8"/>
<path d="M59.3975 80.584C57.3987 82.5129 54.6005 86.7874 59.3975 88.454C65.3938 90.5373 66.833 92.6205 64.9142 96.7871" stroke="#151523" stroke-width="0.8"/>
<path d="M58.376 92.2646C58.991 92.9841 59.8516 95.0461 58.376 97.5401" stroke="#151523" stroke-width="0.8"/>
<path d="M55.2551 66.6943C54.4281 67.4756 53.3255 69.6004 55.5307 71.8503C58.2877 74.6628 58.0121 76.3033 56.6336 78.178" stroke="#151523" stroke-width="0.8"/>
<path opacity="0.5" d="M60.8101 57.0072C59.7284 58.4591 58.6604 60.0894 57.8299 61.728C57.0427 63.2808 56.4629 64.8524 56.2925 66.2927C56.1221 67.7327 56.3585 69.0658 57.2383 70.1128C57.4478 70.3619 57.6525 70.6028 57.8512 70.8365C58.643 71.7672 59.3387 72.5859 59.8398 73.363C60.4633 74.3297 60.7591 75.1955 60.5687 76.0868C60.377 76.9819 59.6848 77.9497 58.2071 79.0976C57.1576 79.9131 55.7239 80.81 53.8212 81.8274C53.7196 82.0642 53.6267 82.2975 53.5432 82.5262C55.748 81.3748 57.3933 80.3647 58.5791 79.4438C60.0997 78.2626 60.889 77.2089 61.1111 76.1706C61.3339 75.1284 60.9753 74.1488 60.3236 73.1377C59.8042 72.3323 59.0816 71.4829 58.2878 70.5494L58.2874 70.5491C58.0911 70.3182 57.8903 70.0821 57.6871 69.8404C56.9128 68.9191 56.6784 67.7149 56.8412 66.3395C57.0039 64.9649 57.561 63.4425 58.3363 61.9135C59.2783 60.0555 60.5331 58.2034 61.7625 56.6182C61.4446 56.7435 61.1268 56.8735 60.8101 57.0072Z" fill="#1C1C2A"/>
<path opacity="0.5" d="M75.6293 59.0449C75.1519 60.6372 74.7886 62.7875 74.9252 65.0877C75.1005 68.0399 76.1011 71.2547 78.7593 73.8451C82.0056 77.0079 83.1522 79.2421 83.1522 81.1727C83.1522 83.1121 82 84.8147 80.4231 86.9416C78.8361 89.0829 77.9012 91.192 78.0255 93.7321C78.1334 95.9439 79.0432 98.455 80.9693 101.575C80.8722 101.039 80.6819 100.442 80.3777 99.7748C80.2771 99.5545 80.1982 99.3379 80.1392 99.1249C79.0907 97.0458 78.5843 95.2856 78.5075 93.7098C78.3901 91.3129 79.265 89.3075 80.8143 87.2172C82.3744 85.1126 83.6348 83.2885 83.6348 81.1727C83.6348 79.0475 82.3688 76.6971 79.1005 73.5126C76.5471 71.0246 75.5773 67.9309 75.4068 65.0604C75.2821 62.959 75.5867 60.9857 76.0061 59.4752C75.8769 59.3299 75.7512 59.1867 75.6293 59.0449Z" fill="#1C1C2A"/>
<path opacity="0.5" d="M70.8264 123.164C70.3497 122.613 69.8967 121.967 69.5436 121.249C68.7599 119.656 68.4718 117.714 69.4954 115.628C70.7024 113.169 70.2603 110.98 69.8534 108.965C69.7989 108.696 69.7451 108.43 69.6963 108.167C69.486 107.041 69.3578 105.969 69.582 104.894C69.8049 103.827 70.3797 102.737 71.6157 101.591C72.9279 100.373 73.42 99.1126 73.5185 97.8046C73.6009 96.7087 73.4053 95.5764 73.2076 94.4323C73.173 94.2322 73.1381 94.0313 73.1049 93.8305C72.8797 92.4684 72.7127 91.0707 73.0092 89.5969C73.3047 88.1287 74.0643 86.5672 75.7247 84.8918L75.7313 84.8848L75.7376 84.8771C76.8894 83.506 77.0651 81.6532 76.4441 79.7777C75.8399 77.9532 74.4785 76.0876 72.4861 74.5582C73.0574 73.4682 73.4462 70.8638 71.4167 67.4485C70.0962 65.2252 69.2747 63.2666 69.187 61.3841C69.1231 60.0151 69.4465 58.6701 70.2746 57.2783C70.0871 57.2699 69.9138 57.2507 69.7539 57.2207C68.9607 58.6195 68.6391 59.9948 68.7051 61.4054C68.798 63.4021 69.6659 65.44 70.9993 67.6839C73.0532 71.1411 72.493 73.6362 71.9954 74.452C70.4835 75.4414 68.3946 77.333 66.9616 79.8465C65.5814 82.2675 64.8047 85.2767 65.755 88.6082C65.6746 88.5743 65.5922 88.5408 65.5084 88.5072C62.2838 87.2272 61.184 85.7531 61.0736 84.3578C60.9608 82.9294 61.8668 81.4653 62.9501 80.1752C64.0426 78.8742 65.4564 76.903 66.0427 74.7377C66.6333 72.5566 66.384 70.1699 64.1355 68.1005C62.4664 66.5645 62.0344 64.5864 62.1835 62.712C62.333 60.8326 63.0661 59.0805 63.6947 58.047L63.2795 57.8071C62.6211 58.8898 61.8587 60.7108 61.7023 62.6756C61.5458 64.6451 61.9984 66.7807 63.8041 68.4425C65.8985 70.37 66.1315 72.5671 65.5761 74.6179C65.0163 76.6844 63.6556 78.5924 62.5764 79.8776C61.4885 81.1733 60.4642 82.7659 60.5927 84.3938C60.7237 86.0545 62.0365 87.6369 65.3264 88.9428C65.5793 89.0433 65.815 89.1464 66.0344 89.2518C67.2229 89.8232 67.9182 90.4596 68.2814 91.114C68.6426 91.7647 68.6901 92.4608 68.5284 93.1851C68.1994 94.6561 67.0224 96.1883 65.9506 97.5378L65.815 97.7079C65.6086 97.967 65.4088 98.2185 65.2244 98.4581C64.1219 99.8907 63.606 101.117 63.6382 102.367C63.6619 103.296 63.9888 104.213 64.5588 105.212C63.7772 104.631 62.9931 103.99 62.3498 103.259C61.4327 102.217 60.8173 101.009 60.8997 99.5526C60.9384 98.8657 61.1326 98.1144 61.5336 97.2891C62.0801 96.1656 62.4678 95.1584 62.6243 94.2751C62.7807 93.3898 62.7084 92.6067 62.3068 91.9543C61.9052 91.3019 61.1983 90.8196 60.1704 90.4857C59.291 90.2001 58.1612 90.0177 56.7488 89.9343C56.8557 90.0824 56.928 90.2448 56.972 90.4201C58.2395 90.5081 59.2425 90.6799 60.0178 90.9317C60.9804 91.2443 61.5706 91.6728 61.8929 92.196C62.215 92.7192 62.2935 93.3761 62.1486 94.1951C62.0033 95.0166 61.637 95.9784 61.0977 97.088C60.6776 97.9524 60.4645 98.7556 60.4191 99.5051C60.1659 100.528 59.7894 102.167 59.4751 103.787C59.4388 103.973 59.4032 104.161 59.3686 104.347C59.3756 104.39 59.3811 104.433 59.3853 104.477C59.4217 104.829 59.5173 105.155 59.6637 105.457C59.7472 104.95 59.8443 104.414 59.949 103.874C60.1429 102.876 60.3604 101.87 60.5578 101.008C60.8022 101.976 61.3293 102.822 61.9838 103.565C62.9477 104.661 64.2043 105.553 65.2754 106.312L65.6181 105.992C64.6608 104.593 64.1488 103.463 64.1205 102.355C64.0922 101.253 64.5413 100.129 65.6104 98.7403C65.6879 98.6393 65.7682 98.5367 65.851 98.4315C65.8213 99.2467 65.8454 100.309 65.9862 101.44C66.1769 102.972 66.5848 104.649 67.3793 106.004C68.0915 107.218 67.8103 108.652 67.1083 110.001C67.1076 110.003 67.1069 110.004 67.1059 110.005C67.2459 110.284 67.2337 110.59 67.1237 110.932C67.2714 110.699 67.4111 110.459 67.5386 110.213C68.2682 108.812 68.6307 107.19 67.7984 105.771C67.0489 104.492 66.6522 102.886 66.465 101.383C66.2834 99.9239 66.3015 98.5821 66.3749 97.7711C67.4209 96.4534 68.6481 94.858 68.9998 93.285C69.1804 92.4765 69.1333 91.661 68.7058 90.8902C68.2909 90.1424 67.532 89.4635 66.34 88.875C65.2517 85.5323 65.9952 82.5103 67.3835 80.0746C68.7424 77.6913 70.714 75.8808 72.1634 74.9092C74.1066 76.3938 75.4124 78.1935 75.9848 79.9223C76.5691 81.6874 76.3851 83.3579 75.3705 84.5722C73.6574 86.3031 72.8507 87.9422 72.5357 89.5065C72.2217 91.0669 72.4015 92.5345 72.6286 93.9053C72.6631 94.1131 72.6984 94.3184 72.7333 94.521C72.931 95.6679 73.1151 96.7356 73.0372 97.7701C72.9471 98.9673 72.5042 100.117 71.2829 101.25C69.9854 102.454 69.354 103.627 69.1092 104.801C68.8657 105.967 69.0093 107.114 69.2213 108.251C69.2719 108.522 69.326 108.792 69.3805 109.063C69.786 111.083 70.1939 113.115 69.0603 115.425C67.9608 117.665 68.2755 119.759 69.1085 121.452C69.3868 122.019 69.7235 122.542 70.0857 123.012C70.3245 123.065 70.5718 123.115 70.8264 123.164Z" fill="#1C1C2A"/>
<path d="M50.6374 64.8107C53.0245 63.2027 55.5566 61.9961 56.1873 63.354C57.3859 65.9339 59.7829 64.2924 60.502 62.4159C61.2211 60.5397 61.4607 61.0087 62.6593 63.823C63.1723 65.0279 63.5097 64.4276 63.9725 63.604C64.5903 62.5039 65.4316 61.0063 67.2135 62.8842C68.7153 64.4667 70.106 62.8898 71.4119 61.4083C72.8155 59.8161 74.1217 58.3345 75.3636 61.0081C76.1711 62.7463 76.761 64.6175 77.3163 66.3799C77.8604 68.1055 78.3714 69.7267 79.0217 71.0165C78.8921 70.398 79.2441 70.434 79.4383 70.6243C80.6369 71.7967 80.8765 70.8587 81.1165 69.6859C81.3082 68.7478 81.516 65.9922 81.5956 64.7318C77.94 62.1173 75.1677 58.2462 73.8562 56.2785C69.0621 57.452 68.1725 57.4897 67.9326 54.2061C63.3784 55.1445 53.5505 58.5633 50.6741 64.7318C50.6618 64.758 50.6496 64.7845 50.6374 64.8107Z" fill="#1C1C2A"/>
<path d="M78.9515 71.5322C78.4699 70.3598 78.9515 70.3598 79.1922 70.5941C79.737 71.1246 80.0845 71.2231 80.3237 71.0632C81.9526 72.6264 85.6917 76.128 87.6175 77.6284C89.5432 79.1291 94.5183 80.7549 96.765 81.38C95.952 79.7389 94.4013 75.6589 94.7031 72.4699C94.9088 71.8448 95.6097 70.7817 96.765 71.5322C98.2095 72.4699 98.4502 73.8767 99.1724 75.0491C99.8947 76.2216 100.617 75.9872 101.339 75.9872C102.061 75.9872 104.95 76.6906 106.394 78.5664C106.795 78.879 107.935 79.5981 109.283 79.9732C110.968 80.4423 113.134 82.7871 112.412 85.1317C111.69 87.4765 108.801 89.8214 107.357 92.4006C105.913 94.9798 103.746 102.718 96.2838 104.125C94.9835 104.37 93.7859 104.567 92.6729 104.718C87.3953 105.43 84.016 105.082 80.6363 103.694C80.9615 102.765 80.9052 101.548 80.155 99.9039C78.2293 95.6832 84.2472 92.8696 85.6917 88.6489C87.1362 84.4283 83.7659 79.2698 82.3214 77.394C80.8773 75.5182 79.4328 72.7043 78.9515 71.5322Z" fill="#8CB9FF"/>
<path d="M89.7429 78.6978C91.1092 80.5974 93.7719 83.2496 97.088 83.5639C102.013 84.0312 102.717 79.5937 102.248 77.4915C100.137 79.1267 96.3843 80.5279 96.6186 77.2582C96.6514 76.8028 96.6885 76.3701 96.7241 75.9583C96.891 74.0147 97.0185 72.5332 96.4412 71.315C95.421 70.7852 94.7994 71.7649 94.6094 72.3544C94.3157 75.5305 95.8265 79.5944 96.6186 81.2292C95.0156 80.7731 91.9865 79.7826 89.7429 78.6978Z" fill="#7EAEFA"/>
<path d="M87.655 104.168C86.9562 103.987 86.2692 103.774 85.5822 103.528C85.9545 102.6 85.8903 101.383 85.0311 99.7395C83.6802 97.1558 85.7422 95.0994 87.9233 92.9246C89.3031 91.5486 90.7305 90.125 91.3718 88.4902C92.5466 85.4936 90.9397 82.0242 89.3171 79.5938C91.3787 80.7424 94.5695 82.4258 96.885 83.3342C100.469 84.7403 99.642 87.3185 94.9554 84.9746C93.0258 84.0373 93.0258 87.0841 96.885 88.7245C100.745 90.365 107.912 90.1306 110.393 84.506C112.874 78.8813 115.907 79.5843 113.977 84.9746C112.047 90.365 108.188 96.224 105.156 98.0991C103.687 99.0072 101.571 99.2555 99.4035 99.5097C97.0967 99.7808 94.7312 100.058 93.0258 101.146C90.4885 102.763 89.7757 104.08 89.7209 104.599C89.2871 104.529 88.8617 104.448 88.4419 104.356L87.655 104.168Z" fill="#7EAEFA"/>
<path opacity="0.5" d="M80.5997 102.817C80.7132 101.991 80.5462 100.973 79.9466 99.6951C78.7378 97.1198 80.5833 95.0697 82.5349 92.9015C83.7695 91.53 85.047 90.1107 85.6205 88.4811C85.7061 88.2383 85.7749 87.9925 85.829 87.7441L88.5807 90.3502C90.3074 91.9854 96.2279 92.2177 99.1882 91.5181C97.2146 92.6864 94.7478 92.9186 90.0609 92.2177C85.3736 91.5171 83.8938 93.6196 86.6071 95.0215C89.3208 96.423 97.2145 94.3205 99.9282 92.4513C97.4716 96.4702 92.7906 97.0429 89.3638 97.462C89.0054 97.5057 88.6607 97.5479 88.3338 97.5919C87.1303 97.755 85.807 97.6339 84.6248 97.5259C82.4147 97.3241 80.6978 97.1673 81.1801 98.9938C81.7117 101.008 81.0897 102.294 80.5997 102.817Z" fill="#70A2F2"/>
<path d="M83.3669 32.7272C84.8924 27.2863 89.5644 27.177 91.7098 27.8025C92.9015 28.0263 91.9483 25.2229 96.0003 24.7539C100.053 24.2848 102.675 26.8647 103.867 28.7409C105.058 30.6171 106.012 32.4932 107.919 34.1347C108.872 36.949 111.971 39.9979 112.686 40.7013C112.686 41.4051 112.962 46.0665 112.962 48.177C117.014 45.1284 115.308 42.3432 116.262 39.7632C117.025 37.6995 116.421 36.4017 116.024 36.0109C116.103 34.9163 116.167 32.3993 115.785 31.0861C115.308 29.4443 113.64 29.2099 112.925 29.2099C113.401 28.0372 112.925 26.8647 112.21 26.3953C111.494 25.9263 110.78 24.7539 109.826 22.8777C108.872 21.0015 105.059 17.9527 103.39 17.2491C101.721 16.5455 101.721 15.3729 101.245 14.9039C95.0469 9.50986 89.5644 11.8551 88.3727 12.3241C87.1807 12.7932 86.4658 12.3242 85.9891 12.0897C76.6924 6.46115 70.7331 14.4349 69.0648 16.7801C59.0532 21.0016 55.4775 26.3957 56.1928 33.9004C56.9077 41.4051 54.7626 44.2193 53.0939 45.8611C51.4252 47.5026 51.9019 49.1445 53.3321 51.0206C55.9543 54.773 51.4252 55.242 49.7568 56.1801C48.0881 57.1182 49.2801 59.6977 48.5648 60.8705C47.8496 62.043 48.0881 64.3882 49.995 66.2643C52.8554 60.8705 60.9601 58.5253 65.4891 57.5872C70.0182 56.6491 74.3088 50.3169 77.6458 47.5026C80.9833 44.6884 81.46 39.5285 83.3669 32.7272Z" fill="#2B2B39"/>
<path opacity="0.5" d="M77.1019 48.0211C77.4714 42.3329 78.5795 35.5487 80.886 30.4144C82.3046 27.2561 84.162 24.7562 86.5456 23.4996C88.8807 22.2688 91.7672 22.2077 95.3418 23.9812C95.296 24.3329 95.2031 24.6661 95.0781 24.9772C95.2496 24.9304 95.4337 24.8889 95.6317 24.8536C95.7333 24.5424 95.8049 24.2127 95.8363 23.8666C95.9422 22.6882 95.5758 21.3489 94.3817 19.9467C93.0982 18.4393 91.7795 17.2831 90.6056 16.2541C90.2456 15.9387 89.8994 15.6352 89.5722 15.3373C88.567 14.4225 87.7372 13.5583 87.192 12.5465C86.9594 12.5169 86.7562 12.4528 86.5767 12.3789C86.9755 13.2551 87.5622 14.0102 88.2642 14.7362C87.1215 14.2841 85.7004 13.8708 84.1731 13.6707C81.1402 13.2733 77.6435 13.7135 75.1055 16.4232C72.4443 19.2649 70.2164 23.3365 68.4171 27.5344C66.6156 31.7359 65.2357 36.0816 64.2767 39.4847C63.3253 42.8599 61.7212 46.2867 59.5898 48.9522C58.0038 50.9356 56.1364 52.4852 54.0388 53.2896C54.0091 53.497 53.9431 53.6856 53.8474 53.8588C56.2003 53.059 58.2588 51.3774 59.967 49.241C62.1456 46.5165 63.7738 43.0303 64.7381 39.6094C65.6943 36.2168 67.0683 31.8917 68.8585 27.7157C70.6505 23.5355 72.8525 19.5225 75.4587 16.7399C77.5454 14.512 80.3321 13.8944 82.9693 14.0304C80.4089 14.9943 76.0793 17.509 72.9259 22.3135C70.6847 25.7274 69.3691 30.6945 68.0608 35.6322L67.9571 36.024C66.6069 41.1164 65.2389 46.1341 62.8738 49.4908C60.9924 52.1608 58.3628 53.7956 55.8311 54.754C53.6899 55.5646 51.6279 55.8873 50.168 55.9449C49.9815 56.0231 49.8104 56.1024 49.662 56.1855C49.5729 56.2355 49.4919 56.29 49.4182 56.3486L49.4161 56.4195C50.9238 56.4593 53.4098 56.1733 56.0037 55.1912C58.6 54.2084 61.3182 52.5236 63.2677 49.7569C65.6912 46.3178 67.077 41.209 68.4205 36.1417L68.5117 35.7977C69.8305 30.8205 71.13 25.9164 73.3286 22.5667C76.9066 17.1154 82.0256 14.6865 84.1557 14.1413C85.7357 14.3532 87.1969 14.7993 88.332 15.271C85.4357 15.4374 80.7103 16.9793 78.6494 22.3579C77.9457 24.1949 77.0002 27.2027 75.8893 30.7374L75.8051 31.0053C74.6564 34.6598 73.3331 38.8599 71.913 42.928C70.4923 46.9968 68.9769 50.9262 67.4454 54.0404C66.7745 55.405 66.1026 56.6088 65.4366 57.5976C65.446 57.5955 65.4554 57.5934 65.4652 57.5916C65.6845 57.5462 65.9035 57.4886 66.1218 57.4191C66.7089 56.4981 67.2953 55.427 67.8771 54.2437C69.4208 51.1043 70.9435 47.1539 72.366 43.0796C73.7892 39.0038 75.1146 34.7971 76.263 31.1432L76.3419 30.8918C77.4571 27.3434 78.3993 24.3458 79.0978 22.5224C81.3215 16.7187 86.7803 15.5826 89.3082 15.737C89.6274 16.0262 89.9599 16.3175 90.3018 16.6174C91.4714 17.643 92.7549 18.7683 94.014 20.2467C95.0128 21.4198 95.3729 22.5143 95.3746 23.4734C91.776 21.7386 88.7804 21.7893 86.3186 23.0871C83.7977 24.4156 81.8841 27.0273 80.4477 30.2254C78.0406 35.5833 76.9297 42.6828 76.5923 48.5041C76.7641 48.3368 76.9342 48.1755 77.1019 48.0211Z" fill="#1C1C2A"/>
<path opacity="0.5" d="M53.6952 51.752C56.4616 50.7619 58.0842 48.3615 59.1658 45.4267C59.8308 43.6221 60.2974 41.6014 60.7018 39.5551C60.8628 38.741 61.0137 37.9252 61.1632 37.1166C61.3909 35.8848 61.6155 34.6701 61.8683 33.503C63.0516 28.0431 66.5822 20.8651 68.7542 16.9443C68.5118 17.0479 68.2736 17.1521 68.0389 17.257C65.8453 21.2879 62.5448 28.1235 61.4 33.4059C61.1461 34.5769 60.9187 35.807 60.6896 37.0461C60.5401 37.8536 60.3903 38.6649 60.2318 39.4661C59.8284 41.5064 59.367 43.4985 58.7153 45.2678C57.6473 48.1659 56.0844 50.4269 53.458 51.3367C53.5478 51.4803 53.6267 51.6186 53.6952 51.752Z" fill="#1C1C2A"/>
<path d="M112.707 41.3309C113.055 41.3581 113.405 41.3759 113.754 41.3857C114.46 41.4056 115.166 41.3923 115.845 41.3574C115.864 41.1988 115.885 41.0413 115.912 40.8849C115.218 40.9226 114.491 40.938 113.768 40.9177C113.405 40.9076 113.044 40.8884 112.69 40.8594C112.693 40.9792 112.699 41.1388 112.707 41.3309Z" fill="#3A0A44"/>
<path d="M108.117 34.6564C111.202 36.1666 114.223 36.5113 116.219 36.4369C116.13 36.2693 116.035 36.1425 115.949 36.058L115.952 36.0244L115.955 35.9759C113.876 36.014 110.742 35.5861 107.618 33.8682C107.715 33.9579 107.815 34.047 107.917 34.135C107.976 34.3082 108.043 34.4821 108.117 34.6564Z" fill="#3A0A44"/>
<path opacity="0.5" d="M91.7792 17.6377C92.8518 16.4294 96.1864 14.6442 101.663 15.7302C101.75 15.9041 101.851 16.09 101.986 16.2768C96.389 15.0373 93.098 16.8631 92.1369 17.9461L91.7792 17.6377Z" fill="#1C1C2A"/>
<path opacity="0.5" d="M111.152 29.2788C111.754 29.3895 112.362 29.3068 112.969 28.9408C112.941 29.049 112.905 29.1583 112.861 29.2673C112.981 29.2673 113.128 29.2739 113.293 29.2931C112.571 29.7528 111.822 29.8781 111.065 29.7391C110.001 29.5436 108.965 28.8311 108.004 27.9136C106.506 26.4827 105.115 24.4742 104.019 22.8917C103.71 22.4447 103.424 22.0319 103.166 21.6756C102.293 20.4713 100.826 20.2307 99.2676 20.4655C97.7134 20.6996 96.1393 21.3994 95.167 21.9746L94.9225 21.573C95.9298 20.9771 97.5629 20.2485 99.1956 20.0025C100.824 19.7573 102.524 19.9851 103.552 21.4036C103.821 21.7752 104.116 22.1995 104.431 22.6549C105.525 24.2343 106.875 26.1838 108.334 27.5769C109.274 28.4742 110.227 29.1084 111.152 29.2788Z" fill="#1C1C2A"/>
<path d="M95.4181 18.3848C96.8507 17.2831 100.433 15.9768 103.298 19.5651C106.164 23.1537 108.949 25.4674 109.984 26.1757M98.7611 23.1069C100.91 23.6576 105.543 25.5146 106.88 28.5363C108.551 32.3134 111.656 34.6744 114.044 34.4383M112.133 36.7989C112.531 37.4286 113.662 38.4987 114.999 37.7432M94.224 13.6637C95.2589 13.5064 97.6149 13.3332 98.7611 13.8998" stroke="#151523" stroke-width="0.8"/>
<path d="M89.7429 18.282C86.5717 18.2039 79.5633 20.5339 76.8992 30.4797M76.1857 22.2698C74.3623 25.6317 70.3822 33.7637 69.0505 39.3932C67.3853 46.4303 66.1961 55.3442 54.3038 57.2207M56.6825 45.2575C57.7924 43.5374 59.8694 39.0649 59.2987 34.9365C58.5852 29.7759 59.5366 24.8501 63.8177 22.0352M83.3212 12.4177C79.119 12.105 70.2397 13.5437 68.337 21.8005C66.4339 30.0574 62.3114 40.566 60.4879 44.7881" stroke="#151523" stroke-width="0.8"/>
</g>
<path d="M304.368 25.5596H236.935C233.957 25.5596 231.542 27.974 231.542 30.9527V46.2395C231.542 49.2177 233.957 51.6326 236.935 51.6326H291.889L308.71 57.0998L304.084 51.6326H304.368C307.346 51.6326 309.761 49.2177 309.761 46.2395V30.9527C309.761 27.974 307.346 25.5596 304.368 25.5596Z" fill="#FFBE56"/>
<path fill-rule="evenodd" clip-rule="evenodd" d="M249.625 40.6989C251.018 40.6989 252.148 39.5691 252.148 38.1756C252.148 36.7822 251.018 35.6523 249.625 35.6523C248.231 35.6523 247.102 36.7822 247.102 38.1756C247.102 39.5691 248.231 40.6989 249.625 40.6989ZM263.923 40.6989C265.316 40.6989 266.446 39.5691 266.446 38.1756C266.446 36.7822 265.316 35.6523 263.923 35.6523C262.529 35.6523 261.4 36.7822 261.4 38.1756C261.4 39.5691 262.529 40.6989 263.923 40.6989ZM280.324 38.1756C280.324 39.5691 279.194 40.6989 277.801 40.6989C276.407 40.6989 275.277 39.5691 275.277 38.1756C275.277 36.7822 276.407 35.6523 277.801 35.6523C279.194 35.6523 280.324 36.7822 280.324 38.1756ZM291.678 40.6989C293.072 40.6989 294.202 39.5691 294.202 38.1756C294.202 36.7822 293.072 35.6523 291.678 35.6523C290.285 35.6523 289.155 36.7822 289.155 38.1756C289.155 39.5691 290.285 40.6989 291.678 40.6989Z" fill="white"/>
<path d="M203.112 354.74C203.112 400.187 239.955 437.029 285.4 437.029C330.848 437.029 367.691 400.187 367.691 354.74C367.691 309.293 330.848 272.451 285.4 272.451C239.955 272.451 203.112 309.293 203.112 354.74Z" fill="white"/>
<path d="M285.4 436.029C240.507 436.029 204.112 399.635 204.112 354.74C204.112 309.846 240.507 273.451 285.4 273.451C330.295 273.451 366.691 309.846 366.691 354.74C366.691 399.635 330.295 436.029 285.4 436.029Z" stroke="#2773D9" stroke-opacity="0.6" stroke-width="2"/>
<path d="M301.066 300.688C292.712 318.006 278.371 307.678 275.077 300.686C281.612 300.684 279.518 287.439 278.579 280.816H297.882C297.517 291.017 299.852 298.314 301.066 300.688Z" fill="#FCC4AC"/>
<path d="M301.066 300.688C292.712 318.006 278.371 307.678 275.077 300.686C281.612 300.684 279.518 287.439 278.579 280.816H297.882C297.517 291.017 299.852 298.314 301.066 300.688Z" fill="url(#paint1_linear_50:2)"/>
<path d="M257.145 309.217C257.046 337.529 249.313 412.406 248.166 424.059C247.562 430.224 262.607 435.612 279.455 436.817C301.342 438.383 319.649 431.002 323.599 427.636C324.688 393.984 326.413 320.528 326.413 314.286C318.227 308.452 306.501 302.991 301.066 300.687C290.278 307.371 282.566 305.088 277.5 299.916C269.887 301.338 260.699 307.05 257.145 309.217Z" fill="#307FE2"/>
<path d="M257.145 309.217C257.046 337.529 249.313 412.406 248.166 424.059C247.562 430.224 262.607 435.612 279.455 436.817C301.342 438.383 319.649 431.002 323.599 427.636C324.688 393.984 326.413 320.528 326.413 314.286C318.227 308.452 306.501 302.991 301.066 300.687C290.278 307.371 282.566 305.088 277.5 299.916C269.887 301.338 260.699 307.05 257.145 309.217Z" fill="url(#paint2_linear_50:2)"/>
<path d="M257.145 309.217C257.046 337.529 249.313 412.406 248.166 424.059C247.562 430.224 262.607 435.612 279.455 436.817C301.342 438.383 319.649 431.002 323.599 427.636C324.688 393.984 326.413 320.528 326.413 314.286C318.227 308.452 306.501 302.991 301.066 300.687C290.278 307.371 282.566 305.088 277.5 299.916C269.887 301.338 260.699 307.05 257.145 309.217Z" fill="#2773D9"/>
<path opacity="0.35" d="M276.425 300.143C276.556 300.112 276.686 300.084 276.811 300.056C277.546 304.772 278.27 311.1 278.52 317.625C278.833 325.83 278.39 334.373 276.238 340.413C273.585 347.876 273.585 356.939 274.252 365.376C274.534 368.984 274.94 372.471 275.315 375.666V375.666V375.678C275.378 376.213 275.44 376.741 275.498 377.259C275.915 380.867 276.253 384.045 276.253 386.497C276.253 387.029 276.253 387.551 276.253 388.064C276.274 392.244 276.29 395.866 275.128 400.156C273.83 404.974 271.052 410.623 265.174 418.877C264.445 419.912 264.273 421.372 264.518 423.094C264.757 424.813 265.404 426.762 266.269 428.741C267.243 430.98 268.489 433.247 269.718 435.249C269.546 435.215 269.369 435.18 269.197 435.145C268.02 433.207 266.842 431.041 265.909 428.899C265.039 426.903 264.377 424.917 264.127 423.149C263.882 421.385 264.038 419.805 264.851 418.651V418.65C270.719 410.414 273.465 404.808 274.747 400.053C275.894 395.818 275.878 392.249 275.862 388.065V388.064C275.862 387.551 275.857 387.03 275.857 386.497C275.857 384.071 275.524 380.917 275.107 377.303C275.05 376.784 274.987 376.254 274.925 375.717V375.712V375.712C274.549 372.517 274.143 369.022 273.856 365.407C273.189 356.961 273.189 347.827 275.868 340.282C277.989 334.315 278.437 325.835 278.124 317.64C277.879 311.143 277.16 304.842 276.425 300.143Z" fill="white"/>
<path opacity="0.35" d="M251.306 429.002C251.493 429.131 251.686 429.259 251.889 429.386C251.118 427.555 250.545 425.763 250.321 424.169C250.081 422.446 250.248 420.987 250.977 419.952C256.856 411.698 259.633 406.049 260.936 401.231C262.093 396.941 262.077 393.319 262.062 389.139V389.131C262.057 388.62 262.057 388.101 262.057 387.571C262.057 385.12 261.723 381.942 261.306 378.333C261.244 377.815 261.181 377.288 261.119 376.753V376.741V376.74C260.743 373.545 260.337 370.058 260.056 366.451C259.388 358.014 259.388 348.951 262.046 341.488C264.193 335.448 264.636 326.904 264.324 318.7C264.146 314.079 263.735 309.558 263.245 305.638C263.12 305.706 262.995 305.774 262.875 305.843C263.354 309.716 263.755 314.168 263.927 318.714C264.24 326.91 263.792 335.39 261.671 341.356C258.992 348.902 258.992 358.036 259.659 366.482C259.946 370.098 260.353 373.592 260.728 376.787V376.787V376.791C260.79 377.329 260.853 377.859 260.915 378.378C261.332 381.992 261.661 385.146 261.661 387.571C261.661 388.104 261.666 388.625 261.666 389.136V389.14C261.681 393.324 261.697 396.892 260.556 401.129C259.269 405.883 256.522 411.489 250.654 419.725V419.726C249.841 420.879 249.685 422.46 249.93 424.224C250.138 425.704 250.639 427.338 251.306 429.002Z" fill="white"/>
<path opacity="0.35" d="M283.903 437.343C282.918 435.656 281.959 433.836 281.172 432.032C280.302 430.036 279.64 428.051 279.395 426.282C279.145 424.518 279.302 422.938 280.114 421.784V421.784C285.982 413.548 288.734 407.941 290.016 403.187C291.157 398.951 291.142 395.382 291.126 391.199V391.197C291.126 390.685 291.121 390.164 291.121 389.631C291.121 387.205 290.792 384.051 290.375 380.437C290.313 379.916 290.25 379.385 290.188 378.846V378.846C289.818 375.651 289.406 372.156 289.125 368.541C288.458 360.094 288.453 350.96 291.136 343.415C293.257 337.449 293.7 328.969 293.393 320.773C293.164 314.828 292.543 309.045 291.876 304.505C292.007 304.481 292.137 304.455 292.262 304.428C292.929 308.984 293.56 314.789 293.784 320.758C294.096 328.963 293.653 337.506 291.506 343.547C288.854 351.009 288.849 360.073 289.516 368.51C289.802 372.117 290.209 375.604 290.579 378.798V378.799C290.641 379.339 290.704 379.87 290.766 380.392C291.183 384.001 291.517 387.178 291.517 389.631C291.517 390.163 291.517 390.685 291.522 391.198C291.538 395.378 291.553 398.999 290.396 403.29C289.093 408.107 286.321 413.757 280.438 422.011C279.708 423.045 279.541 424.505 279.781 426.228C280.026 427.946 280.672 429.895 281.532 431.875C282.35 433.752 283.361 435.649 284.388 437.394C284.226 437.377 284.065 437.36 283.903 437.343Z" fill="white"/>
<path opacity="0.35" d="M300.204 438.371C299.005 436.41 297.807 434.209 296.858 432.032C295.988 430.036 295.326 428.051 295.076 426.282C294.831 424.518 294.987 422.938 295.8 421.784V421.784C301.668 413.548 304.415 407.941 305.702 403.187C306.843 398.951 306.827 395.382 306.812 391.199C306.812 390.686 306.806 390.164 306.806 389.63C306.806 387.205 306.478 384.051 306.061 380.437C305.999 379.916 305.936 379.386 305.874 378.847V378.846C305.504 375.651 305.092 372.156 304.811 368.541C304.138 360.094 304.138 350.96 306.822 343.415C308.943 337.449 309.386 328.969 309.079 320.773C308.834 314.404 308.135 308.221 307.421 303.553C307.562 303.62 307.703 303.688 307.849 303.757C308.552 308.407 309.23 314.492 309.469 320.758C309.782 328.963 309.339 337.506 307.192 343.547C304.54 351.009 304.534 360.073 305.201 368.51C305.488 372.117 305.895 375.604 306.265 378.799V378.806C306.327 379.343 306.39 379.872 306.452 380.392C306.869 384.001 307.203 387.178 307.203 389.63C307.203 390.163 307.203 390.684 307.208 391.196V391.198C307.223 395.378 307.239 398.999 306.082 403.29C304.779 408.107 302.007 413.757 296.123 422.011C295.394 423.045 295.227 424.505 295.467 426.228C295.712 427.946 296.358 429.895 297.218 431.875C298.192 434.112 299.438 436.377 300.668 438.379C300.511 438.376 300.36 438.374 300.204 438.371Z" fill="white"/>
<path opacity="0.35" d="M316.12 437.584C315.088 435.83 314.072 433.922 313.249 432.032C312.378 430.036 311.717 428.051 311.472 426.283C311.221 424.518 311.383 422.938 312.191 421.784L312.196 421.784C318.064 413.548 320.81 407.941 322.092 403.187C323.233 398.951 323.223 395.382 323.207 391.199C323.202 390.686 323.202 390.164 323.202 389.631C323.202 387.205 322.869 384.051 322.452 380.437C322.389 379.917 322.332 379.387 322.269 378.849V378.846C321.894 375.651 321.488 372.156 321.201 368.541C320.534 360.094 320.529 350.96 323.213 343.415C325.334 337.449 325.782 328.969 325.469 320.773C325.37 318.223 325.203 315.703 324.984 313.298C325.13 313.393 325.266 313.489 325.407 313.584C325.61 315.898 325.771 318.314 325.86 320.758C326.173 328.963 325.73 337.506 323.583 343.547C320.93 351.009 320.925 360.073 321.592 368.51C321.878 372.118 322.285 375.604 322.66 378.799C322.723 379.339 322.78 379.87 322.843 380.392C323.259 384.001 323.593 387.178 323.593 389.631C323.593 390.163 323.598 390.684 323.598 391.198C323.614 395.378 323.63 398.999 322.473 403.29C321.17 408.107 318.397 413.757 312.514 422.011C311.789 423.045 311.618 424.505 311.862 426.228C312.102 427.946 312.748 429.895 313.613 431.875C314.447 433.796 315.484 435.738 316.537 437.516C316.401 437.539 316.261 437.562 316.12 437.584Z" fill="white"/>
<path d="M266.875 252.972C266.614 258.903 266.875 273.396 266.875 284.012C266.875 301.957 293.77 288.043 297.882 280.814C305.98 266.578 297.027 253.74 295.318 252.972H266.875Z" fill="url(#paint3_linear_50:2)"/>
<path d="M266.875 252.972C266.614 258.903 266.875 273.396 266.875 284.012C266.875 301.957 293.77 288.043 297.882 280.814C305.98 266.578 297.027 253.74 295.318 252.972H266.875Z" fill="#FCC4AC"/>
<path d="M298.309 247.741C304.187 246.625 303.327 251.385 302.988 252.16C317.033 256.029 299.96 284.398 297.866 284.989L297.85 279.695C297.829 277.586 301.956 275.436 299.7 271.729C296.703 266.807 296.052 276.478 296.052 276.478C293.926 275.358 293.155 267.333 295.135 262.792C288.183 265.859 283.623 260.146 282.742 258.513C277.839 261.365 270.324 260.22 267.906 257.872C267.52 259.182 266.754 261.619 266.754 265.888C261.147 262.869 258.255 251.723 261.22 252.74C260.839 230.543 280.429 238.524 282.742 241.161C285.051 243.799 285.598 243.06 285.9 242.863C294.155 238.834 298.168 242.826 297.397 245.371C296.62 247.915 298.079 247.792 298.309 247.741Z" fill="#6E000E"/>
<path d="M182.219 347.001C178.017 347.375 174.366 344.867 175.183 344.584C186.117 340.789 200.816 345.515 209.313 348.122C212.295 354.148 207.346 360.827 204.499 363.413C203.064 361.964 200.096 360.09 198.15 360.09C188.259 359.546 178.741 373.738 169.068 366.673C161.33 361.022 174.611 351.204 182.219 347.001Z" fill="#F4B88E"/>
<path d="M182.219 347.001C178.017 347.375 174.366 344.867 175.183 344.584C186.117 340.789 200.816 345.515 209.313 348.122C212.295 354.148 207.346 360.827 204.499 363.413C203.064 361.964 200.096 360.09 198.15 360.09C188.259 359.546 178.741 373.738 169.068 366.673C161.33 361.022 174.611 351.204 182.219 347.001Z" fill="#FCC4AC"/>
<path d="M257.144 309.214C258.17 328.196 255.059 360.893 252.693 377.531C250.192 383.8 196.955 364.278 198.369 360.503C199.784 356.728 203.327 351.196 205.077 346.753C206.278 343.705 236.919 358.066 238.052 352.915C239.186 347.763 240.058 318.815 257.144 309.214Z" fill="#307FE2"/>
<path d="M257.144 309.214C258.17 328.196 255.059 360.893 252.693 377.531C250.192 383.8 196.955 364.278 198.369 360.503C199.784 356.728 203.327 351.196 205.077 346.753C206.278 343.705 236.919 358.066 238.052 352.915C239.186 347.763 240.058 318.815 257.144 309.214Z" fill="url(#paint4_linear_50:2)"/>
<path d="M257.144 309.214C258.17 328.196 255.059 360.893 252.693 377.531C250.192 383.8 196.955 364.278 198.369 360.503C199.784 356.728 203.327 351.196 205.077 346.753C206.278 343.705 236.919 358.066 238.052 352.915C239.186 347.763 240.058 318.815 257.144 309.214Z" fill="#2773D9"/>
<path opacity="0.35" fill-rule="evenodd" clip-rule="evenodd" d="M254.597 310.667C250.757 321.011 249.688 335.876 251.424 347.15C252.289 352.773 252.753 357.711 252.008 361.754C251.268 365.782 249.329 368.915 245.377 370.949C243.914 371.703 242.56 371.609 241.135 371.089C240.074 370.701 238.992 370.085 237.803 369.41C237.374 369.165 236.931 368.913 236.47 368.662C233.008 366.768 228.673 364.963 222.2 366.955C217.155 368.507 212.146 366.892 208.153 364.382C204.154 361.87 201.216 358.487 200.315 356.577L199.959 356.745C200.901 358.742 203.902 362.176 207.943 364.716C211.988 367.258 217.119 368.93 222.316 367.331C228.645 365.383 232.865 367.139 236.281 369.007C236.725 369.25 237.158 369.496 237.581 369.737C238.781 370.419 239.906 371.059 241 371.459C242.497 372.005 243.97 372.117 245.558 371.3C249.636 369.201 251.638 365.954 252.393 361.825C253.154 357.71 252.675 352.713 251.809 347.09C250.085 335.872 251.153 321.076 254.968 310.804L254.597 310.667ZM246.434 322.14C246.56 321.475 246.675 320.862 246.776 320.31L246.389 320.24C246.289 320.788 246.173 321.399 246.048 322.064C245.371 325.654 244.4 330.803 243.89 336.071C243.286 342.304 243.323 348.753 245.289 352.997C247.599 357.982 246.664 361.43 244.582 363.13C242.485 364.843 239.149 364.858 236.495 362.824C235.059 361.722 232.777 360.374 229.813 359.976C226.843 359.577 223.208 360.134 219.074 362.815C218.017 363.5 216.354 363.619 214.455 363.251C212.564 362.885 210.478 362.044 208.61 360.866C206.741 359.686 205.102 358.176 204.092 356.479C203.084 354.786 202.705 352.912 203.336 350.984L202.962 350.862C202.288 352.92 202.7 354.911 203.754 356.68C204.804 358.446 206.495 359.997 208.4 361.199C210.305 362.401 212.436 363.261 214.379 363.638C216.314 364.012 218.103 363.914 219.288 363.145C223.349 360.512 226.89 359.981 229.76 360.366C232.635 360.753 234.853 362.061 236.255 363.136C239.031 365.264 242.572 365.28 244.831 363.435C247.103 361.579 248 357.912 245.646 352.831C243.729 348.694 243.679 342.342 244.282 336.109C244.79 330.861 245.757 325.732 246.434 322.14Z" fill="white"/>
<path d="M205.077 346.752C203.327 351.196 199.784 356.727 198.369 360.502C198.128 361.149 199.488 362.257 201.922 363.619C205.83 360.725 209.209 351.406 210.409 347.108C207.44 346.305 205.372 346.005 205.077 346.752Z" fill="#105CC1"/>
<path d="M314.983 439.489C316.839 438.627 323.097 426.16 326.412 417.489L318.897 411.467C308.329 415.014 303.951 425.588 306.604 425.153C309.256 424.718 309.501 426.151 307.219 429.161C298.448 440.705 312.43 440.677 314.983 439.489Z" fill="#FCC4AC"/>
<path d="M348.601 374.825C353.276 359.415 338.08 323.621 326.412 314.287C326.412 318.098 325.682 335.734 325.286 359.15C331.982 371.149 315.473 407.649 313.931 410.728C312.383 413.807 325.87 425.315 328.074 420.862C330.278 416.409 343.343 392.152 348.601 374.825Z" fill="#307FE2"/>
<path d="M348.601 374.825C353.276 359.415 338.08 323.621 326.412 314.287C326.412 318.098 325.682 335.734 325.286 359.15C331.982 371.149 315.473 407.649 313.931 410.728C312.383 413.807 325.87 425.315 328.074 420.862C330.278 416.409 343.343 392.152 348.601 374.825Z" fill="url(#paint5_linear_50:2)"/>
<path d="M348.601 374.825C353.276 359.415 338.08 323.621 326.412 314.287C326.412 318.098 325.682 335.734 325.286 359.15C331.982 371.149 315.473 407.649 313.931 410.728C312.383 413.807 325.87 425.315 328.074 420.862C330.278 416.409 343.343 392.152 348.601 374.825Z" fill="#2773D9"/>
<path opacity="0.35" fill-rule="evenodd" clip-rule="evenodd" d="M328.072 324.504C327.441 323.723 326.863 323.008 326.362 322.371L326.05 322.614C326.555 323.259 327.144 323.98 327.78 324.765C329.828 327.292 332.418 330.481 334.606 333.932C337.483 338.459 339.641 343.384 339.036 347.795C338.64 350.643 339.26 353.615 340.271 356.583C340.969 358.638 341.855 360.708 342.726 362.74C343.111 363.637 343.497 364.526 343.856 365.404C345.039 368.281 345.998 371.037 346.155 373.571C346.306 376.093 345.66 378.392 343.622 380.375C339.703 384.199 338.895 387.659 338.119 390.961C338.02 391.392 337.921 391.82 337.811 392.246C337.353 394.089 336.78 395.889 335.545 397.71C334.309 399.531 332.407 401.385 329.275 403.317C328.056 404.068 326.951 405.482 326.008 407.17C325.059 408.863 324.257 410.853 323.658 412.784C323.053 414.715 322.647 416.594 322.49 418.064C322.412 418.798 322.391 419.438 322.449 419.936C322.464 420.092 322.49 420.238 322.527 420.369C321.114 419.566 319.629 418.465 318.3 417.276C317.581 414.012 317.91 410.097 319.145 406.653C320.385 403.183 322.522 400.225 325.372 398.876C328.019 397.624 329.416 396.049 330.167 394.254C330.907 392.473 331 390.492 331.068 388.458C331.073 388.376 331.073 388.293 331.078 388.209C331.141 386.243 331.209 384.223 331.813 382.216C332.439 380.133 333.642 378.059 336.034 376.097C338.411 374.151 339.213 372.176 339.062 370.172C338.921 368.19 337.848 366.214 336.576 364.252C336.175 363.632 335.753 363.015 335.336 362.398C334.414 361.043 333.486 359.689 332.772 358.314C331.73 356.319 331.157 354.328 331.662 352.313C334.242 342.029 327.978 335.39 326.008 333.559L325.737 333.848C327.681 335.651 333.804 342.15 331.277 352.217C330.74 354.369 331.365 356.466 332.423 358.496C333.147 359.892 334.096 361.279 335.023 362.643C335.445 363.256 335.857 363.864 336.248 364.466C337.52 366.426 338.536 368.328 338.671 370.201C338.807 372.052 338.088 373.91 335.789 375.792C333.33 377.805 332.084 379.946 331.438 382.103C330.818 384.16 330.75 386.226 330.682 388.182C330.682 388.27 330.677 388.358 330.677 388.445C330.604 390.489 330.51 392.398 329.802 394.103C329.098 395.795 327.775 397.304 325.205 398.52C322.225 399.93 320.031 402.996 318.775 406.52C317.514 410.047 317.17 414.066 317.93 417.424L317.946 417.485L317.993 417.527C319.536 418.914 321.297 420.191 322.923 421.036L323.131 420.7C323.074 420.662 323.011 420.583 322.959 420.444C322.907 420.305 322.865 420.121 322.839 419.892C322.787 419.435 322.803 418.826 322.881 418.106C323.032 416.667 323.434 414.814 324.033 412.902C324.627 410.989 325.419 409.025 326.352 407.362C327.285 405.694 328.348 404.35 329.484 403.652C332.647 401.698 334.596 399.808 335.873 397.931C337.144 396.054 337.733 394.201 338.197 392.342C338.301 391.911 338.406 391.48 338.505 391.048C339.276 387.755 340.063 384.398 343.898 380.657C346.03 378.581 346.702 376.164 346.546 373.547C346.389 370.942 345.404 368.134 344.221 365.254C343.857 364.364 343.471 363.468 343.08 362.567C342.215 360.543 341.334 358.497 340.641 356.456C339.641 353.511 339.041 350.608 339.422 347.849C340.052 343.289 337.822 338.26 334.94 333.721C332.736 330.248 330.125 327.033 328.072 324.504Z" fill="white"/>
<path d="M321.3 392.499C325.448 380.525 329.07 365.928 325.287 359.149C335.449 366.274 327.731 382.216 321.3 392.499Z" fill="#105CC1"/>
<path d="M313.931 410.728C312.383 413.807 325.87 425.315 328.074 420.862C328.246 420.519 328.48 420.058 328.767 419.492C325.536 418.77 318.261 415.555 314.978 408.468C314.473 409.597 314.103 410.378 313.931 410.728Z" fill="#307FE2"/>
<path d="M313.931 410.728C312.383 413.807 325.87 425.315 328.074 420.862C328.246 420.519 328.48 420.058 328.767 419.492C325.536 418.77 318.261 415.555 314.978 408.468C314.473 409.597 314.103 410.378 313.931 410.728Z" fill="url(#paint6_linear_50:2)"/>
<path d="M313.931 410.728C312.383 413.807 325.87 425.315 328.074 420.862C328.246 420.519 328.48 420.058 328.767 419.492C325.536 418.77 318.261 415.555 314.978 408.468C314.473 409.597 314.103 410.378 313.931 410.728Z" fill="#105CC1"/>
<path d="M218.159 268.514H150.726C147.748 268.514 145.333 270.928 145.333 273.907V289.194C145.333 292.172 147.748 294.587 150.726 294.587H205.68L222.501 300.054L217.875 294.587H218.159C221.137 294.587 223.552 292.172 223.552 289.194V273.907C223.552 270.928 221.137 268.514 218.159 268.514Z" fill="#8BBAFA"/>
<path fill-rule="evenodd" clip-rule="evenodd" d="M163.416 283.653C164.809 283.653 165.939 282.523 165.939 281.13C165.939 279.736 164.809 278.606 163.416 278.606C162.022 278.606 160.893 279.736 160.893 281.13C160.893 282.523 162.022 283.653 163.416 283.653ZM177.714 283.653C179.107 283.653 180.237 282.523 180.237 281.13C180.237 279.736 179.107 278.606 177.714 278.606C176.32 278.606 175.191 279.736 175.191 281.13C175.191 282.523 176.32 283.653 177.714 283.653ZM194.115 281.13C194.115 282.523 192.985 283.653 191.592 283.653C190.198 283.653 189.068 282.523 189.068 281.13C189.068 279.736 190.198 278.606 191.592 278.606C192.985 278.606 194.115 279.736 194.115 281.13ZM205.469 283.653C206.863 283.653 207.993 282.523 207.993 281.13C207.993 279.736 206.863 278.606 205.469 278.606C204.076 278.606 202.946 279.736 202.946 281.13C202.946 282.523 204.076 283.653 205.469 283.653Z" fill="white"/>
<defs>
<linearGradient id="paint0_linear_50:2" x1="427.064" y1="44.1778" x2="430.462" y2="65.1345" gradientUnits="userSpaceOnUse">
<stop stop-color="#F4AF8A"/>
<stop offset="1" stop-color="#F9C0A1" stop-opacity="0"/>
</linearGradient>
<linearGradient id="paint1_linear_50:2" x1="282.764" y1="295.5" x2="291.269" y2="299.844" gradientUnits="userSpaceOnUse">
<stop stop-color="#F3AD8F"/>
<stop offset="1" stop-color="#FCC4AC" stop-opacity="0"/>
</linearGradient>
<linearGradient id="paint2_linear_50:2" x1="313.776" y1="409.268" x2="292.504" y2="398.388" gradientUnits="userSpaceOnUse">
<stop stop-color="#026CF0"/>
<stop offset="1" stop-color="#307FE2" stop-opacity="0"/>
</linearGradient>
<linearGradient id="paint3_linear_50:2" x1="264.139" y1="277.216" x2="280.893" y2="279.091" gradientUnits="userSpaceOnUse">
<stop stop-color="#FEA568"/>
<stop offset="1" stop-color="#F4B88E"/>
</linearGradient>
<linearGradient id="paint4_linear_50:2" x1="233.102" y1="377.623" x2="234.202" y2="368.509" gradientUnits="userSpaceOnUse">
<stop stop-color="#0154F7"/>
<stop offset="1" stop-color="#307FE2" stop-opacity="0"/>
</linearGradient>
<linearGradient id="paint5_linear_50:2" x1="347.736" y1="377.979" x2="340.149" y2="374.776" gradientUnits="userSpaceOnUse">
<stop stop-color="#0071FF"/>
<stop offset="1" stop-color="#307FE2" stop-opacity="0"/>
</linearGradient>
<linearGradient id="paint6_linear_50:2" x1="347.736" y1="377.979" x2="340.148" y2="374.776" gradientUnits="userSpaceOnUse">
<stop stop-color="#0071FF"/>
<stop offset="1" stop-color="#307FE2" stop-opacity="0"/>
</linearGradient>
</defs>
</svg>
