<svg width="24" height="24" viewBox="0 0 24 24" fill="none" xmlns="http://www.w3.org/2000/svg">
<circle cx="12" cy="12" r="11.5" fill="#FF2E00" stroke="white"/>
<path d="M12 5C8.14022 5 5 8.14023 5 12C5 15.8598 8.14022 19 12 19C15.8598 19 19 15.8598 19 12C19 8.14023 15.8598 5 12 5ZM12 6.05C15.2923 6.05 17.95 8.70769 17.95 12C17.95 14.6829 16.1849 16.9429 13.75 17.6882V15.8979C13.75 15.2293 13.3648 14.656 12.808 14.3707C13.3494 14.2671 13.852 14.0618 14.2743 13.7717C14.6965 13.4815 15.0262 13.115 15.236 12.7026C15.4457 12.2901 15.5295 11.8436 15.4803 11.4C15.4311 10.9565 15.2504 10.5287 14.9531 10.1522C15.1084 9.6744 15.2818 8.83624 14.8697 8.17666C14.0753 8.17666 13.5626 8.72123 13.318 9.05986C12.8997 8.92246 12.4521 8.85119 12 8.85C11.5476 8.8504 11.0995 8.92097 10.6807 9.05781C10.4354 8.71902 9.92318 8.17666 9.13027 8.17666C8.6574 8.93359 8.94972 9.74759 9.10635 10.0798C8.78902 10.4546 8.59004 10.8855 8.52647 11.3353C8.46289 11.7852 8.53663 12.2407 8.74135 12.6628C8.94606 13.0848 9.27566 13.4609 9.70188 13.7587C10.1281 14.0565 10.6382 14.2672 11.1886 14.3728C10.7314 14.6084 10.389 15.0359 10.2842 15.5547H9.82412C9.37017 15.5547 9.19379 15.3702 8.94844 15.0591C8.70624 14.7479 8.44581 14.5389 8.13291 14.4521C7.96421 14.4342 7.85056 14.5625 7.99756 14.6763C8.49421 15.0144 8.52849 15.5677 8.72764 15.93C8.90894 16.2562 9.28039 16.55 9.70039 16.55H10.25V17.6882C7.81507 16.9429 6.05 14.6829 6.05 12C6.05 8.70769 8.70768 6.05 12 6.05Z" fill="white"/>
</svg>
